<?xml version="1.0" encoding="UTF-8"?>
<svg id="Layer_1" xmlns="http://www.w3.org/2000/svg" version="1.1" xmlns:xlink="http://www.w3.org/1999/xlink" viewBox="0 0 32 32">
  <!-- Generator: Adobe Illustrator 30.4.0, SVG Export Plug-In . SVG Version: 2.1.4 Build 226)  -->
  <defs>
    <style>
      .st0 {
        fill: #35961d;
      }

      .st1 {
        fill: #f9f6f8;
      }

      .st2 {
        fill: #2d8d1c;
      }

      .st3 {
        fill: #62b120;
      }

      .st4 {
        fill: #1a7116;
      }

      .st5 {
        opacity: .85;
      }

      .st5, .st6, .st7, .st8, .st9 {
        isolation: isolate;
      }

      .st5, .st8 {
        fill: none;
        stroke: #00e5ff;
        stroke-miterlimit: 4;
        stroke-width: 1.4px;
      }

      .st10 {
        fill: #67b624;
      }

      .st11 {
        fill: #66b820;
      }

      .st12 {
        fill: #52af29;
      }

      .st13 {
        fill: #a9f337;
      }

      .st14 {
        fill: #339b1b;
      }

      .st15 {
        fill: #4cad29;
      }

      .st16 {
        fill: #eef3e6;
      }

      .st17 {
        fill: #58a61d;
      }

      .st18 {
        fill: #34911c;
      }

      .st19 {
        fill: #2e7f24;
      }

      .st20 {
        fill: #67b622;
      }

      .st21 {
        fill: #49a31c;
      }

      .st22 {
        fill: #43a225;
      }

      .st23 {
        fill: #6ac331;
      }

      .st24 {
        fill: #339024;
      }

      .st25 {
        fill: #32911f;
      }

      .st26 {
        fill: #64be2a;
      }

      .st27 {
        fill: #a1e53b;
      }

      .st28 {
        fill: #a1f02f;
      }

      .st29 {
        fill: #65bd33;
      }

      .st30 {
        fill: #61361a;
      }

      .st31 {
        fill: #55a214;
      }

      .st32 {
        fill: #86d32c;
      }

      .st33 {
        fill: #60af1c;
      }

      .st34 {
        fill: #3c4c19;
      }

      .st35 {
        fill: #50311a;
      }

      .st36 {
        fill: #61b220;
      }

      .st37 {
        fill: #63391c;
      }

      .st38 {
        fill: #a7ef34;
      }

      .st39 {
        fill: #60b01f;
      }

      .st40 {
        fill: #49aa22;
      }

      .st41 {
        fill: #59bb1f;
      }

      .st42 {
        fill: #61361c;
      }

      .st43 {
        fill: #469311;
      }

      .st44 {
        fill: #94e727;
      }

      .st45 {
        fill: #2f8f1d;
      }

      .st46 {
        fill: #2f8a20;
      }

      .st47 {
        fill: #359426;
      }

      .st48 {
        fill: #6d3d1b;
      }

      .st49 {
        fill: #a1f130;
      }

      .st50 {
        fill: #603619;
      }

      .st51 {
        fill: #5e501e;
      }

      .st52 {
        fill: #3cab1d;
      }

      .st53 {
        fill: #85d129;
      }

      .st54 {
        fill: #579f1c;
      }

      .st55 {
        fill: #187212;
      }

      .st56 {
        fill: #56a51b;
      }

      .st57 {
        fill: #7f4729;
      }

      .st58 {
        fill: #a1ed35;
      }

      .st59 {
        fill: #63b420;
      }

      .st60 {
        fill: #9feb32;
      }

      .st61 {
        fill: #f9f3fa;
      }

      .st62 {
        fill: #76cf1e;
      }

      .st63 {
        fill: #267b1b;
      }

      .st64 {
        fill: #fef8f0;
      }

      .st65 {
        fill: #5f331b;
      }

      .st66 {
        fill: #5e3614;
      }

      .st6 {
        opacity: .8;
      }

      .st6, .st7 {
        fill: #1a6644;
      }

      .st6, .st7, .st67 {
        display: none;
      }

      .st68 {
        fill: #663d1e;
      }

      .st69 {
        fill: #a7f236;
      }

      .st70 {
        fill: #a6f336;
      }

      .st71 {
        fill: #6ebd25;
      }

      .st72 {
        fill: #582e14;
      }

      .st73 {
        fill: url(#linear-gradient1);
      }

      .st74 {
        fill: #a6f033;
      }

      .st75 {
        fill: #26821c;
      }

      .st76 {
        fill: #3da023;
      }

      .st77 {
        fill: #115b12;
      }

      .st78 {
        fill: #64bb27;
      }

      .st79 {
        fill: #7dce2c;
      }

      .st80 {
        fill: #a8f03a;
      }

      .st81 {
        fill: #26801b;
      }

      .st82 {
        fill: #66371b;
      }

      .st83 {
        fill: #186c17;
      }

      .st84 {
        fill: #5eaf21;
      }

      .st85 {
        fill: #7ad023;
      }

      .st86 {
        fill: #a1ec33;
      }

      .st87 {
        fill: #349224;
      }

      .st88 {
        fill: #4cb31c;
      }

      .st89 {
        fill: #42a426;
      }

      .st90 {
        fill: #72ba25;
      }

      .st91 {
        fill: #5e4211;
      }

      .st92 {
        fill: #71be22;
      }

      .st7 {
        opacity: .7;
      }

      .st93 {
        fill: #4ead29;
      }

      .st94 {
        fill: #58b41d;
      }

      .st95 {
        fill: #348e21;
      }

      .st96 {
        fill: #4ca925;
      }

      .st97 {
        fill: #4c330e;
      }

      .st98 {
        fill: #71b820;
      }

      .st99 {
        fill: #693820;
      }

      .st100 {
        fill: #a5f136;
      }

      .st101 {
        fill: #9be32e;
      }

      .st102 {
        fill: #fbfcf9;
      }

      .st103 {
        fill: #5e6d11;
      }

      .st104 {
        fill: #72c420;
      }

      .st105 {
        fill: #98dd2a;
      }

      .st106 {
        fill: #237d1d;
      }

      .st107 {
        fill: #57321d;
      }

      .st108 {
        fill: #267e1d;
      }

      .st109 {
        fill: #6a391d;
      }

      .st110 {
        fill: #5b2c17;
      }

      .st111 {
        fill: url(#radial-gradient);
      }

      .st112 {
        fill: #47a31f;
      }

      .st113 {
        fill: #2f8c21;
      }

      .st114 {
        fill: #5e3a1c;
      }

      .st115 {
        fill: #217418;
      }

      .st116 {
        fill: #86d725;
      }

      .st117 {
        fill: #f2eee7;
      }

      .st118 {
        fill: #70ca20;
      }

      .st119 {
        fill: #25801c;
      }

      .st120 {
        fill: #2a7521;
      }

      .st121 {
        fill: #227a1b;
      }

      .st122 {
        fill: #277c1a;
      }

      .st123 {
        fill: #6c3c28;
      }

      .st124 {
        fill: #61b11f;
      }

      .st125 {
        fill: #80d020;
      }

      .st126 {
        fill: #f0ecf3;
      }

      .st127 {
        fill: #6bc020;
      }

      .st128 {
        fill: #a5f235;
      }

      .st129 {
        fill: #5aa81b;
      }

      .st130 {
        fill: #96e62e;
      }

      .st131 {
        fill: #80d120;
      }

      .st132 {
        fill: #56af2d;
      }

      .st133 {
        fill: #298b1e;
      }

      .st134 {
        fill: #61341d;
      }

      .st135 {
        fill: #47a727;
      }

      .st136 {
        fill: #83d026;
      }

      .st137 {
        fill: #0a0a12;
      }

      .st138 {
        fill: #27821e;
      }

      .st139 {
        fill: #79ce23;
      }

      .st140 {
        fill: #6f421b;
      }

      .st141 {
        fill: #70c125;
      }

      .st142 {
        fill: #389020;
      }

      .st143 {
        fill: #359521;
      }

      .st144 {
        fill: #44a425;
      }

      .st145 {
        fill: #60bf2a;
      }

      .st146 {
        fill: #7acf27;
      }

      .st147 {
        fill: #92e32b;
      }

      .st148 {
        fill: #a1e73c;
      }

      .st149 {
        fill: #4aa72c;
      }

      .st150 {
        fill: #573514;
      }

      .st151 {
        fill: #62391a;
      }

      .st152 {
        fill: #65b622;
      }

      .st153 {
        fill: #6dc421;
      }

      .st154 {
        fill: #99e42d;
      }

      .st155 {
        fill: #a0e932;
      }

      .st156 {
        fill: #23771b;
      }

      .st157 {
        fill: #2e8c1c;
      }

      .st158 {
        fill: #60b320;
      }

      .st159 {
        fill: #70c42c;
      }

      .st160 {
        fill: #3fa126;
      }

      .st161 {
        fill: #69401f;
      }

      .st162 {
        fill: #5a2c17;
      }

      .st8 {
        opacity: .85;
      }

      .st163 {
        fill: #562f19;
      }

      .st164 {
        fill: #552f17;
      }

      .st165 {
        fill: #a1ed2e;
      }

      .st166 {
        fill: #552d17;
      }

      .st167 {
        fill: #70bb21;
      }

      .st168 {
        fill: #1a6818;
      }

      .st169 {
        fill: #7fd028;
      }

      .st170 {
        fill: #83ce27;
      }

      .st171 {
        fill: #68351a;
      }

      .st172 {
        fill: #83d224;
      }

      .st173 {
        fill: #69bf21;
      }

      .st174 {
        fill: #9dec2f;
      }

      .st175 {
        fill: #3da71e;
      }

      .st176 {
        fill: #69bd21;
      }

      .st177 {
        fill: #4cb720;
      }

      .st178 {
        fill: #88d32c;
      }

      .st179 {
        fill: #593415;
      }

      .st180 {
        fill: #46b222;
      }

      .st181 {
        fill: #61b31e;
      }

      .st182 {
        fill: #1f7f13;
      }

      .st183 {
        fill: #4cae2a;
      }

      .st184 {
        fill: #573215;
      }

      .st185 {
        fill: #5d381d;
      }

      .st186 {
        fill: #deeada;
      }

      .st187 {
        fill: #7ccb23;
      }

      .st188 {
        fill: #1b7218;
      }

      .st189 {
        fill: #a4f136;
      }

      .st190 {
        fill: #65c224;
      }

      .st191 {
        fill: #5f3417;
      }

      .st192 {
        fill: #5db731;
      }

      .st193 {
        fill: #349721;
      }

      .st194 {
        fill: #2f820f;
      }

      .st195 {
        fill: #298320;
      }

      .st196 {
        fill: #1e6a1a;
      }

      .st197 {
        fill: #6bbe21;
      }

      .st198 {
        fill: #69bd1d;
      }

      .st199 {
        fill: #65361d;
      }

      .st200 {
        fill: #64361c;
      }

      .st201 {
        fill: #7bcb28;
      }

      .st202 {
        fill: #4fb02c;
      }

      .st203 {
        fill: #e0e4d5;
      }

      .st204 {
        fill: #7acc21;
      }

      .st205 {
        fill: #5fb720;
      }

      .st206 {
        fill: #4aa821;
      }

      .st207 {
        fill: #69b81a;
      }

      .st208 {
        fill: #1e751e;
      }

      .st209 {
        fill: #78ca22;
      }

      .st210 {
        fill: #532e16;
      }

      .st211 {
        fill: #9fe230;
      }

      .st212 {
        fill: #82311c;
      }

      .st213 {
        fill: #58ab23;
      }

      .st214 {
        fill: #5dc320;
      }

      .st215 {
        fill: #1a6a1a;
      }

      .st216 {
        fill: #744426;
      }

      .st217 {
        fill: #237e1d;
      }

      .st218 {
        fill: #41a127;
      }

      .st219 {
        fill: #2d8d20;
      }

      .st220 {
        fill: #58b21b;
      }

      .st221 {
        fill: #5aaa1f;
      }

      .st222 {
        fill: #552d1b;
      }

      .st223 {
        fill: #60ba22;
      }

      .st224 {
        fill: #459c1d;
      }

      .st225 {
        fill: #89e111;
      }

      .st226 {
        fill: #359026;
      }

      .st227 {
        fill: #78ca27;
      }

      .st228 {
        fill: #70bf25;
      }

      .st229 {
        fill: #97e12c;
      }

      .st230 {
        fill: #33951f;
      }

      .st231 {
        fill: #6ebe24;
      }

      .st232 {
        fill: #44371c;
      }

      .st233 {
        fill: #5bb831;
      }

      .st234 {
        fill: #60af15;
      }

      .st235 {
        fill: #593017;
      }

      .st236 {
        fill: #8cd92f;
      }

      .st237 {
        fill: #44a628;
      }

      .st238 {
        fill: #82d426;
      }

      .st239 {
        fill: #3c9d23;
      }

      .st240 {
        fill: #583618;
      }

      .st241 {
        fill: #faf5f8;
      }

      .st242 {
        fill: #623620;
      }

      .st243 {
        fill: #774b22;
      }

      .st244 {
        fill: #287c1b;
      }

      .st245 {
        fill: #6ec121;
      }

      .st246 {
        fill: #f8f9f8;
      }

      .st247 {
        fill: #91e624;
      }

      .st248 {
        fill: #78c92b;
      }

      .st249 {
        fill: #653720;
      }

      .st250 {
        fill: #603a14;
      }

      .st251 {
        fill: #84d926;
      }

      .st252 {
        fill: #57341f;
      }

      .st253 {
        fill: #2f8f20;
      }

      .st254 {
        fill: #5bab1a;
      }

      .st255 {
        fill: #6abc1f;
      }

      .st256 {
        fill: #79d52e;
      }

      .st257 {
        fill: #2f8e1f;
      }

      .st258 {
        fill: #369521;
      }

      .st259 {
        fill: #4f3513;
      }

      .st260 {
        fill: #7b3c27;
      }

      .st261 {
        fill: #339126;
      }

      .st262 {
        fill: #267a1c;
      }

      .st263 {
        fill: #359327;
      }

      .st264 {
        fill: #2c8822;
      }

      .st265 {
        fill: #35a316;
      }

      .st266 {
        fill: #77cb22;
      }

      .st267 {
        fill: #73c621;
      }

      .st268 {
        fill: #50ad2f;
      }

      .st269 {
        fill: #643f21;
      }

      .st270 {
        fill: #61c02f;
      }

      .st271 {
        fill: #80d026;
      }

      .st272 {
        fill: #389722;
      }

      .st273 {
        fill: #a3e843;
      }

      .st274 {
        fill: #96e233;
      }

      .st275 {
        fill: #fdfcfe;
      }

      .st276 {
        fill: #82d32c;
      }

      .st277 {
        fill: #56a020;
      }

      .st278 {
        fill: #6d3d1d;
      }

      .st279 {
        fill: #6d3d1f;
      }

      .st280 {
        fill: #73c521;
      }

      .st281 {
        fill: #71c61f;
      }

      .st282 {
        fill: #69c025;
      }

      .st283 {
        fill: #5b3919;
      }

      .st284 {
        fill: #4e2b15;
      }

      .st285 {
        fill: #693c1f;
      }

      .st286 {
        fill: #a0e537;
      }

      .st287 {
        fill: url(#linear-gradient);
      }

      .st288 {
        fill: #43a626;
      }

      .st289 {
        fill: #96e132;
      }

      .st290 {
        fill: #9eeb32;
      }

      .st291 {
        fill: #97df2f;
      }

      .st292 {
        fill: #5bbf26;
      }

      .st293 {
        fill: #4cab2a;
      }

      .st294 {
        fill: #7dca20;
      }

      .st295 {
        fill: #f9eefd;
      }

      .st296 {
        fill: #76ca24;
      }

      .st297 {
        fill: #52aa15;
      }

      .st298 {
        fill: #65b61f;
      }

      .st299 {
        fill: #65371e;
      }

      .st300 {
        fill: #683a1c;
      }

      .st301 {
        fill: #98e227;
      }

      .st302 {
        fill: #673a1d;
      }

      .st303 {
        fill: #40a125;
      }

      .st304 {
        fill: #7ad022;
      }

      .st305 {
        fill: #166814;
      }

      .st306 {
        fill: #3c9827;
      }

      .st307 {
        fill: #a9f336;
      }

      .st308 {
        fill: #309124;
      }

      .st309 {
        fill: #3a9a26;
      }

      .st310 {
        fill: #52ab25;
      }

      .st311 {
        fill: #2b8f22;
      }

      .st312 {
        fill: #955931;
      }

      .st313 {
        fill: #532f19;
      }

      .st314 {
        fill: #22641c;
      }

      .st315 {
        fill: #8cd82b;
      }

      .st316 {
        fill: #60351a;
      }

      .st317 {
        fill: #5a3b19;
      }

      .st9 {
        fill: #00b4cc;
        opacity: .46;
      }
    </style>
    <radialGradient id="radial-gradient" cx="16" cy="16" fx="16" fy="16" r="10" gradientUnits="userSpaceOnUse">
      <stop offset=".79" stop-color="#000e19"/>
      <stop offset=".91" stop-color="#0d3d4f"/>
      <stop offset="1" stop-color="#87cbf0"/>
    </radialGradient>
    <linearGradient id="linear-gradient" x1="313.09" y1="702.37" x2="361.68" y2="772.11" gradientTransform="translate(3.99 2.57) scale(.02)" gradientUnits="userSpaceOnUse">
      <stop offset="0" stop-color="#1a6716"/>
      <stop offset="1" stop-color="#2c861e"/>
    </linearGradient>
    <linearGradient id="linear-gradient1" x1="365.74" y1="387.47" x2="309.14" y2="473.52" gradientTransform="translate(3.99 2.57) scale(.02)" gradientUnits="userSpaceOnUse">
      <stop offset="0" stop-color="#2a811e"/>
      <stop offset="1" stop-color="#126315"/>
    </linearGradient>
  </defs>
  <circle class="st137" cx="16" cy="16" r="16"/>
  <circle class="st111" cx="16" cy="16" r="10"/>
  <g id="Generative_Object" class="st67">
    <g>
      <path class="st225" d="M17.74,24.82c-3.41.64-6.88-.79-8.85-3.84-1.43-2.21-1.83-4.96-1.13-7.52.96-3.52,3.89-6.09,7.41-6.48,5.15-.58,9.55,3.46,9.68,8.75.11,4.42-2.9,8.29-7.1,9.09ZM22.77,21.7c.82-1.02,1.4-2.19,1.72-3.45.53-2.09.33-4.32-.59-6.26-.46-.97-1.08-1.85-1.84-2.59-1.81-1.75-4.22-2.61-6.69-2.39-2.12.19-4.13,1.19-5.6,2.83-3.12,3.49-3.06,8.93.14,12.35,3.55,3.81,9.6,3.58,12.87-.49Z"/>
      <path class="st154" d="M18.27,26s-.04-.01-.04-.02c-.03-.19-.15-.27-.34-.32.21-.04.31-.14.36-.37.04.2.12.31.33.36-.2.05-.3.16-.31.34Z"/>
      <path class="st301" d="M24,10.48c-.06-.19-.15-.28-.35-.32.19-.05.3-.12.35-.32.06.2.16.29.34.32-.18.05-.27.11-.34.33Z"/>
      <path class="st229" d="M7.78,20.41c-.28.06-.24.18-.34.32-.01-.18-.13-.29-.31-.33.18-.04.29-.13.32-.33.04.2.13.29.33.34Z"/>
      <path class="st105" d="M15.16,6.62c-.05-.17-.11-.27-.29-.32.16-.06.24-.11.29-.3.06.19.13.25.31.3-.19.04-.27.12-.31.32Z"/>
      <path class="st291" d="M23.79,22.16c-.04.06-.04.14-.08.18-.03-.19-.12-.27-.3-.31.18-.04.25-.11.31-.3.06.19.15.29.32.27-.09.07-.19.05-.25.15Z"/>
      <path class="st274" d="M8.03,10.67c-.17.03-.22.11-.27.28-.04-.17-.1-.24-.26-.28.15-.05.22-.1.26-.28.03.17.1.24.26.28Z"/>
      <path class="st273" d="M8.62,7.94c-.03-.11-.07-.16-.17-.18.1-.05.14-.08.17-.2.03.12.07.15.17.2-.1,0-.14.06-.17.17Z"/>
      <path class="st286" d="M9.24,23.77c-.04-.08-.07-.14-.16-.17.1-.04.13-.08.16-.19.02.12.08.16.19.2-.09.01-.16.05-.18.17Z"/>
      <path class="st27" d="M6.17,14.04c-.03-.1-.07-.15-.17-.18.09-.04.15-.08.16-.19.04.11.08.16.18.19-.1.03-.15.07-.17.18Z"/>
      <path class="st289" d="M25.82,17.96c-.02-.1-.06-.14-.17-.18.09-.03.14-.06.17-.17.04.1.08.15.18.17-.1.03-.14.06-.18.18Z"/>
      <path class="st148" d="M22.37,7.38c-.04-.11-.08-.15-.18-.18.09-.03.14-.07.18-.18.04.11.07.16.17.18-.09.02-.13.06-.17.18Z"/>
      <path class="st46" d="M16.52,19.06c-.01.14-.05.27-.12.4l.7.13.09-.31c.01-.05.05-.08.1-.06,0,.12.05.23.13.34.12.18.34.26.55.19.29.34.65.15.73.19.04.02.04.08.03.12.02,0,.05.03.04.05-.04.1-.03.23.02.34.09.21.3.25.5.25.33,0,.63-.2.68-.55,0-.04-.03-.07,0-.13.02-.04,0-.12,0-.17l-.1.14c-.06.09-.15.21-.26.21-.14,0-.19-.14-.18-.26.01-.18.09-.32.28-.4-.06-.04-.12-.03-.16-.02-.06-.11-.06-.23-.06-.35l.49.08-.07.15.5.09-.07.13.26.08c-.06.07-.1.13-.1.23-.1.12-.18.24-.3.33-.05.04-.06.1-.08.14-.04.05-.14.07-.12.16-.04.1-.16.13-.23.2l.08.06c.03.08-.08.26-.15.26-.09-.07-.22-.09-.33-.04s-.11.12-.17.16l-.14-.27-.12.07.18.27c-.07.02-.17.02-.22.1-.06.09-.09.22-.08.32-.16.01-.2.13-.3.18l-.16-.44-.2.09.19.42-.31.03-.16.61c.05.02.1,0,.15-.02,0,.11-.04.18-.06.26l-.07.29s.08-.02.12,0l-.21.79c-.05-.01-.05-.07-.07-.09.02,0,.04-.02.03-.03,0-.01-.03-.04,0-.05l-.28-1.16-.28-.98s.06-.04.12-.05l-.08-.35-.21.04v-.18c.17-.12.24-.33.2-.54-.05-.28-.29-.49-.56-.53-.13-.02-.28.04-.39.12v-.59s-.23,0-.23,0l.05.58c-.14-.06-.28-.08-.42-.04,0-.01,0-.05.01-.07-.06-.05-.15-.09-.23-.07,0-.02-.01-.04-.01-.06,0-.04.24-.13.21-.42-.01-.12-.09-.25-.2-.31-.16-.09-.17-.05-.34-.03,0-.04,0-.11.02-.17.03-.07.01-.14.02-.2.02-.18.13-.35.25-.47,0,.22.08.43.28.53.04.12.13.21.24.27.2.12.43.11.64.03ZM17.64,20.39c-.11-.01-.19,0-.27.07-.14.12-.17.34-.01.5.19.2.5.21.7.03.15-.14.25-.3.12-.45-.04-.05-.06-.14-.1-.17-.1-.09-.2-.04-.33-.02,0-.06,0-.13-.05-.19-.03-.04-.13,0-.13.04,0,.08.03.15.07.2Z"/>
      <path class="st63" d="M11.06,13.6s.06,0,.1-.02c-.06.27-.04.57.12.82.12.18.27.33.46.4.34.13.69-.02.83-.36,0-.01.02-.02.04-.02l.17.2s-.04.03-.03.05l.1.33c.07-.05.1-.11.14-.16l.14.18c-.07.09-.19.14-.28.23-.02.08.02.22-.04.28-.34.34-.62.28-.64.31-.02.03-.01.06-.01.09l-.33-.04c.1-.14.09-.31,0-.44-.07-.1-.17-.14-.25-.17-.16-.05-.25.07-.35.1-.22.06-.37.15-.43.39-.06.26.06.56.36.59.08.17.25.26.43.2v.03s-.02.09-.05.12c.05.07.03.15.01.23-.02.09-.11.08-.16.13-.08.08.01.23.08.28-.01.04-.02.07-.06.12-.06-.05-.11-.11-.19-.14-.06-.02-.12.06-.14.1-.03.06.01.12.02.19,0,.05-.01.1.02.13l-.29.55c-.04-.06-.06-.12-.11-.14l-.24.43-.06-.26s-.01-.07-.05-.07c.12-.21.1-.46-.08-.63-.02-.01-.02-.03-.02-.05l.51-.11-.05-.22-.49.16c.18-.5-.29-.64-.31-.75,0-.06,0-.12-.03-.17h.07s.05-.02.06-.03c0-.01,0-.04,0-.05,0-.01-.04-.02-.06-.02h-.07s0-.32,0-.32l-.38-.33-.05.17-.33-.32-.06.21c-.11-.11-.17-.23-.29-.3,0,.04-.04.05-.05.05-.01,0-.01-.03-.02-.03.02-.06.09-.11.09-.18,0-.04.05-.04.07-.06l1.13.17s0,.06.03.06l.3.07.03-.18c.05.03.09-.02.13-.05l.24-.14c.1.04.22.08.31.01.08-.06.08-.17.08-.26.04,0,.08.02.12,0,0-.08-.07-.08-.12-.08.02-.07.04-.18-.01-.25-.05-.06-.09-.1-.16-.1-.05,0-.11.03-.14.08-.08-.04-.15.02-.19.09-.06.1-.08.19-.04.29,0,0-.03,0-.04,0,0-.01,0-.06,0-.07-.04,0-.07.05-.08.07-.16.08-.15.23-.21.4h-.24c0-.17,0-.4.04-.49.01-.03.03-.08,0-.11.02-.06.02-.13.03-.19.08,0,.18-.01.25-.08.09-.08.1-.2.09-.32l.27.11s.05-.07.06-.12l-.28-.1c.09-.07.12-.18.11-.29,0-.05-.01-.12-.06-.16-.03-.05,0-.09.01-.15l.42.29c.06-.07.09-.14.11-.21Z"/>
      <path class="st287" d="M12.45,19.34c.26.34.74.44,1.07.15.09.02.16.03.24.02l-.09.25s.04.04.06.05l-.54,1.2-.07.2s-.02,0-.03,0h-.06s-.03-.05-.04-.05c-.01,0-.04,0-.05.02-.03.03.07.05-.04.26l-.33.62-.44.79s-.06.08-.11.08v-.6s.04.05.09.05v-.51s.13.07.13.07v-.54s.13.06.13.06c.02.01.03-.07,0-.1l-.22-.19s-.06-.05-.1-.04c-.02,0-.05.01-.06.05.05.04.1.08.11.14l-.6.16.11.14-.56.14.08.11-.78.2s-.04,0-.03-.02l.02-.03s.08-.02.12-.06l.25-.25.94-.9.34-.34s.07-.06.07-.1l.09.08.26-.25.07-.1c-.05-.09-.08-.16-.16-.24-.14.1-.32.04-.44-.09-.13-.14-.18-.34-.06-.51.1-.14.39-.06.55.14.04-.01.06-.04.1-.03Z"/>
      <path class="st177" d="M14.41,10.1s.04.03.04.04l-.04.2.19-.03c-.03.11-.06.2-.08.3-.1-.01-.21,0-.24.05-.02.04,0,.06,0,.09,0-.03-.05-.07-.07-.08-.03-.02-.07.04-.1.06-.42.29-.15.61-.23.7-.11.13-.12.29-.04.43,0,.01-.01.03-.03.02,0-.02,0-.03-.02-.04-.03-.02-.62.34-.43.71.03.07.12.11.2.12-.03.1-.02.22.02.32-.1.04-.21.12-.23.25-.05.01-.09.04-.14.1-.11-.09-.24-.11-.37-.13.01.1,0,.16-.05.22-.24.11-.54.02-.65-.24-.03-.08-.04-.15,0-.24.02-.05.08-.1.15-.11.05,0,.09,0,.15-.02,0-.11.14-.17.2-.26.03-.03.04-.08,0-.11-.01,0-.04,0-.06-.03,0-.02,0-.03.02-.05l.17-.15-.27-.29-.08.07-.95-1.11s0-.02,0-.03l.23-.2s-.02-.06.02-.04c.09.06.21.07.31.11.08.03.17.02.25.07l-.07.11s-.03.04-.02.05c.07.03.13.02.17.04.07.03.13,0,.19,0,.25,0,.34-.04.49-.32l.12.27c-.19.06-.39.13-.56.27l.41.17c-.07.1-.17.14-.21.26.29-.08.53-.23.71-.47.04-.05.11-.12.07-.2-.03-.06-.13-.06-.19-.04l-.21-.35c.16.05.37,0,.46-.15v-.02s.03-.01.04,0c.05,0,.08-.05.11-.09l.15-.21s.04-.03.06-.07c0,0,.02.01.02.02l.29-.11s.04.09.05.13Z"/>
      <path class="st119" d="M12.02,18.15l.28.46s0,.06.03.03c-.05.16-.04.34.02.49.03.07.05.14.09.2-.03,0-.05.02-.1.03-.16-.2-.45-.28-.55-.14-.12.17-.06.37.06.51.12.13.3.19.44.09.08.08.12.15.16.24l-.07.1c-.01-.08-.09-.14-.17-.19-.09.12-.16.21-.27.29l-.51-.52c-.11.2-.09.46-.19.54-.01,0-.02,0-.04-.02l-.28-.35.18-.09s-.03-.14-.07-.1l-.14.1-.16-.28s.03-.05.03-.09l-.12-.06s-.05-.04-.08-.03c-.02.01-.03.06-.03.09,0,.01-.02.03-.03.02,0-.04,0-.08,0-.12h-.49s.04-.05.07-.06l.97-.59.86-.58s0-.04.03-.05c.02.03.04.07.06.07Z"/>
      <path class="st54" d="M14.71,21.53c-.04.27-.2.18-.21.32l.19-.13-.02.25.09-.23c.05.07.07.13.13.18,0-.1-.14-.21-.12-.26l.04-.09c.14-.04.3,0,.37.13l-.09.06c.11.14,0,.26-.07.37-.22.38-.44.25-.45.35,0,.04.01.08.06.07h.09c0,.08.07.15.1.3l-.22.15-.16.02.06-.1c.07-.11.06-.28,0-.41-.03-.01-.09.01-.09.03l-.03.13c0,.15-.06.27-.2.33-.12.23-.36.35-.62.35-.03.04-.08.06-.11.13-.02-.03-.06-.05-.1-.05,0-.04-.04-.02-.03,0-.21-.15-.33-.44-.21-.71-.13-.19-.09-.43.09-.59.08-.07.17-.11.27-.13.19-.04.27.09.4.16-.01.03-.01.1-.04.13-.1.11-.24.14-.36.21.12.02.2-.06.32-.09l-.07.34.17-.28.17.33s.01-.01.02-.02l-.15-.4.08-.16c.08-.01.15,0,.24.02v-.19c-.02-.06-.06-.11-.09-.15v-.12c.02-.12.1-.23.18-.29.13-.08.25-.05.37.01Z"/>
      <path class="st3" d="M10.73,13.22s-.1.06-.13.12c-.04-.02-.15-.03-.17-.09l-.15-.52s-.01.01-.02.02l.08.48c-.13-.06-.24-.14-.39-.17l.3.27c-.16.05-.3.08-.45.16.19-.01.35-.06.52-.1.04.04.08.08.11.09l-.02.23c-.01.12-.04.21-.11.28,0,.04,0,.08-.02.11l-.07-.02s-.04.02-.04.04c-.19.04-.38.05-.56-.05,0,.04-.01.05-.03.05-.04-.18-.2-.24-.2-.51-.39-.22-.45-.66-.25-1.03.05,0,.09.04.13.07.15.12.31-.29.87-.15.13.03.28.03.4.11.09.06.17.15.17.27v.32s0,.05.03.05Z"/>
      <path class="st135" d="M20.47,18.26l.08.22s.1-.12.15-.1.09.09.1.13c.01.03-.02.06-.03.08,0,.11.03.2.09.28.03-.04.05-.04.08-.06.02-.01.04.03.05.06.07.01.14-.03.18-.08,0,0,.01.01.03.01l-.04.11c-.03.09-.17.17-.05.41l.08-.06s.04.09.06.16c.05-.11.14-.27.22-.28l.15.3s.03-.02.03-.03c0,0,.02,0,.03,0-.06.1-.04.09.04.27l.12-.15.25.55.11-.14.22.53s.05-.07.09-.07l.28.66c-.1-.02-.17-.09-.26-.15l-1.07-.78c-.11-.08-.23-.11-.31-.2,0,0,.01-.02.02-.03l.23.05-.27-.24-.66-.59-.56-.5s-.05-.05-.04-.08c0-.01.02-.03.03-.04l.27-.3c-.22-.23-.02-.58.05-.55.02.01.03.05.04.08l.08.23c.04.11.07.22.1.32Z"/>
      <path class="st138" d="M19.9,18.52s.01.06.04.08l.56.5.66.59.27.24-.23-.05s-.02.03-.02.03c.08.1.2.12.31.2l1.07.78c.09.06.16.13.26.15,0,.01.02.02.02.06l-.76-.08.05-.11-.55-.07.1-.15-.39-.05s-.05,0-.06.01l-.15-.04.08-.15c-.18-.07-.34-.12-.52-.09-.04,0-.09.02-.13.04l.02-.1.28-.49s-.08-.01-.08-.04c.01-.01.05-.04.04-.07-.02-.05-.1-.03-.19-.05l-.26-.08.07-.13-.5-.09.07-.15-.49-.08c0-.2.1-.42.17-.59.02,0,.04-.02.05-.05l.12.11.09-.11Z"/>
      <path class="st266" d="M22.46,16.29s.19.01.19,0c0,0,0-.02,0-.03,0,.03,0,.12.05.13.07.02.16.01.22,0,0,.08.12.13.16.31.01.03.09.02.11,0,0,.2-.17.37-.37.38-.05-.07-.13-.13-.21-.17,0-.07-.04-.13-.11-.19l.21-.03c-.08-.07-.2-.06-.25.04.04.04.1.08.1.13-.06.04-.13.02-.17-.06-.05.03-.12.06-.14.13-.03.11.57.1.5.73l-.64-.12s0-.03-.02-.04l-.32-.1.34-.26s-.01-.01-.01-.01l-.41.22-.47-.12s-.02-.04-.02-.06v-.26c-.05-.12-.11-.24-.1-.37,0-.06.03-.12,0-.17.06,0,.16-.04.22-.02l.35.28s.02,0,.02,0l-.28-.3.32-.06s.03-.03.02-.04l.05.02.57.03s.06-.04.07-.02ZM22.6,16.58c.07.01.08-.04.07-.07-.03.02-.05.04-.07.07Z"/>
      <path class="st143" d="M11.46,17.37l.14.1c-.03.07.02.13.06.18l.09.13c.05.07.09.17.18.19-.02.02-.03.04,0,.06.01.01.02.03.03.06-.03,0-.03.03-.03.05l-.86.58-.97.59s-.06.03-.07.06c-.16,0-.16.23-.33.36l-.09.04s-.04.03-.03.07c-.09-.26-.08-.54.14-.71.02-.15.07-.29.21-.37-.08-.05-.12-.09-.16-.15-.01-.12.23.08.48-.18l.07-.07s.04-.05.05-.08c.04,0,.04.04.05.07l.06.26.24-.43s.06.08.11.14l.29-.55s0-.08-.02-.13c0-.07-.06-.13-.02-.19.02-.04.08-.12.14-.1.08.03.13.09.19.14.04-.05.04-.08.06-.12Z"/>
      <path class="st277" d="M9.77,16.51c0,.05,0,.13.04.17s.09.04.11,0c.01.11.48.24.31.75l-.17.06-.45-.24c.1.12.22.17.34.27l-.38.16.4-.03-.19.37c.05.02.07-.05.09-.08l.21-.3.18-.04s0,.03.02.05c.18.17.2.42.08.63-.02.03-.03.05-.05.08-.01-.02-.07,0-.09,0l-.15-.12c-.21.09-.51.06-.49.15v.06s0-.03-.03-.03c-.18.07-.37.05-.52-.06-.17-.12-.28-.31-.31-.52.02,0,.04.03.06.04l.14-.09c.01-.28.16-.48.38-.62.15-.09.28-.2.45-.24l.23.02c-.02-.12-.12-.2-.22-.25s-.24,0-.35,0c.01-.02.02-.05.06-.05-.03-.03,0-.06.04-.04.03.07.06-.14.26-.09Z"/>
      <path class="st209" d="M12.38,9.2l.15.23c.26-.06.5.02.71.19.12.1.24.19.33.32.13.17-.04.31,0,.44.01.04.05.09.11.08-.09.15-.3.2-.46.15-.02-.03-.06-.07-.07-.11l.1-.52s0,0-.02-.01l-.15.44-.24-.35c0,.15.09.25.13.38l-.44-.07.46.18s.06.11.08.15c-.15.27-.23.31-.49.32l-.17-.18c-.17-.15-.23-.38-.16-.6-.18-.37,0-.65.05-.99.02-.02.05-.04.07-.05Z"/>
      <path class="st144" d="M15.23,8.87l.1.1.03.07c-.18.15.11.27.26.52l-.18.05c.02.07.06.11.11.11,0,.02.01.03.01.04.07.04.03.15.15.16.02,0,.08.06.06.07l-.05.05s0,.06.01.06c.03.01.05,0,.08,0h.05s.01-.04.02-.06c.19-.16.41-.05.49-.12.1-.08.23-.1.32-.01-.03.04,0,.06.01.06l-.02.12s.02.05.04.06l-.21.02c-.26.03-.45.17-.57.39,0-.02,0-.03-.02-.03-.05,0-.06.06-.11.07l-.5.16h-.09c-.02-.14-.08-.29-.12-.45l.52-.17s-.02-.06-.04-.07c-.06-.03-.29.09-.5.12-.18-.63-.32-1.25-.45-1.9-.01-.07-.04-.12,0-.18l.45.46s-.06.03-.11.04l.25.27Z"/>
      <path class="st153" d="M22.13,17.57l.64.12c.06.01.11.05.18.04,0,.04,0,.09,0,.13l-.18.22s-.07.05-.09.1c-.02-.02-.03-.02-.06,0-.15.09-.31.09-.47.05-.06.25-.14.48-.24.69-.04-.03-.13,0-.12.07,0,.04.07.05.09.05-.06.07-.08.17-.13.26l-.07.11s-.03-.01-.03,0c0,0-.03.04-.03.03l-.15-.3c-.08.01-.17.17-.22.28-.02-.07-.02-.11-.06-.16l-.08.06c-.12-.23.02-.31.05-.41l.04-.11s.05-.04.05-.08c.05.03.1-.1.08-.19.12.05.03.14.05.32.07.12.21.13.3.04.05,0,.12-.02.13-.09-.03-.07-.12-.06-.16-.09-.08-.04-.11-.15-.13-.22.04-.02.03-.04.02-.06.06-.03.1-.1.1-.17-.25-.14-.35-.48-.17-.67,0-.01-.02-.04,0-.04,0,0,.02-.01.02-.03.04,0,.12-.01.16.03l.32.36h.02s-.22-.35-.22-.35l.36.02Z"/>
      <path class="st75" d="M14.01,20.34s.06.06.07.1c.03.14.12.22.22.3.13.22.32.37.55.45v.07s-.1-.01-.11.04l-.03.24c-.12-.06-.24-.09-.37-.01-.09.05-.16.16-.19.29-.04,0-.08-.02-.14-.04l-.13.41c-.13-.07-.2-.2-.4-.16-.07-.03-.14-.07-.2-.12-.01,0,0-.03,0-.05,0-.01,0-.01.02-.03l.26-.19-.42-.26s-.03-.11-.05-.14c.01,0,.02,0,.03,0,0,.02.02.04.05.03l.46-.33s-.05-.04-.06-.05c0,0,.01-.04.02-.05l.44-.3-.13-.06c.03-.05.08-.07.12-.1Z"/>
      <path class="st69" d="M21.97,11.72c.06.09.09.21.06.32-.04.15-.16.17-.11.24.03.05.1.02.2.04.3.06.53.29.64.58.03.09.04.2.04.3-.04,0-.05.04-.08.08l-.18.21c-.08-.13.01-.37-.13-.58-.19-.27-.54-.36-.83-.25-.17,0-.33.02-.47.13l-.03.03s-.02,0-.03,0l-.05-.25c-.28.23-.31.74,0,.96l.14.1-.16.09c-.15-.12-.31-.21-.5-.21l.04-.36s0-.04,0-.06c.04-.04.06-.08.03-.15-.11-.22-.27-.41-.44-.59.05-.06.1-.12.13-.2l.57.47.08-.41c.07.07.13.16.19.25.06.04.16-.04.2-.08.01,0,.03.05.06.05.08-.02.17.06.24.03l.21-.1s.03-.08.03-.12c.11-.14.11-.39-.06-.49-.19-.12-.45.1-.39-.07.18-.17.45-.14.59.07Z"/>
      <path class="st195" d="M14.64,8.09c-.05.06-.02.11,0,.18.13.64.27,1.27.45,1.9.21-.03.44-.15.5-.12.02.01.06.05.04.07l-.52.17c.04.16.1.31.12.47-.03,0-.05.02-.1.03l.06.32h-.05c-.02-.07-.12-.1-.19-.13-.08-.2-.24-.33-.44-.35.02-.1.05-.19.08-.3l-.19.03.04-.2s-.04-.03-.04-.04c.07,0,.08-.07.08-.13,0-.04.03-.08.05-.12-.05-.01-.08,0-.11.02l-.05-.12.03-.14.09-.34c-.06,0-.09.03-.16.02l.05-.24.07-.29h-.12c.09-.24.15-.49.22-.75.05.03.06.08.08.1Z"/>
      <path class="st245" d="M21.16,21.67l-.05.05s-.01-.03-.03-.02c-.14.1-.3.13-.46.1s-.18-.21-.35-.12c-.11-.05-.22-.16-.3-.25,0-.03,0-.12-.06-.11-.06.01-.1.09-.15.12.03-.14,0-.27-.12-.36.07,0,.18-.18.15-.26l-.08-.06c.07-.08.19-.11.23-.2l.4.34.03.39.03-.33.23.18-.14-.23c.1-.04.19,0,.27-.01v-.04s-.34-.02-.34-.02l-.07-.1s0-.09.03-.13l.09-.15s.09-.03.13-.04c-.02.03-.05.09-.03.13.07.1.23.06.46.39.03.04.07.06.08.11.06.17.03.35-.06.51.04.05.07.09.08.13Z"/>
      <path class="st308" d="M21.92,10.09c-.09.03-.14.11-.2.19l-.23.28-.62.73-.3.36-.09.09-.28.33-.09-.08-.48-.47s0-.04.02-.07c.18,0,.35-.11.55-.15-.07-.03-.12-.06-.17-.13.04-.02.09-.04.14-.05.04,0,.07-.02.1-.03.06-.02.12-.02.19-.07l-.13-.13.08-.05.26-.08.25-.08c-.03-.07-.07-.08-.13-.13l.21-.08.31-.12s-.08-.04-.1-.09l.72-.24s0,.06,0,.06Z"/>
      <path class="st311" d="M16.8,22.46s-.06.13-.09.28c-.04.2-.09.39-.27.51-.06.04-.11.07-.1.16-.33.08-.67-.13-.7-.49.01,0,.02-.01,0-.01s-.04-.03-.03-.03c.03-.01.05-.04.04-.06,0,0-.03-.01-.04-.01-.07,0-.1-.03-.11-.11,0-.1.12-.11.13-.19s.07-.17.13-.19c.09-.03.19,0,.25.05l-.17.24c.11-.05.16-.16.26-.23.03.11.01.21.08.32l.03-.32c.12.05.17.15.28.18l-.28-.28v-.41s.04,0,.04,0c.08,0,.16-.02.24-.04,0,.02,0,.03.02.05l.35.38-.19.06.13.14Z"/>
      <path class="st76" d="M11.98,20.27s.05.04.08.07c0,.05-.04.07-.07.1l-.34.34-.94.9-.25.25s-.07.06-.12.06l.2-.75.1.09.16-.58.13.13.18-.64.15.15s0-.07,0-.1c.1-.08.08-.35.19-.54l.51.52Z"/>
      <path class="st168" d="M17.15,21.57l.28.98.28,1.16s0,.04,0,.05c0,0-.01.02-.03.03l-.47-.49s.06-.04.11-.06c-.05-.07-.11-.1-.15-.15l-.1-.12-.14-.14s.09-.05.15-.06l-.28-.31-.13-.14.19-.06-.35-.38s-.02-.03-.02-.05c.24-.08.42-.27.49-.53.1.17.06.32.18.28Z"/>
      <path class="st32" d="M18.59,8.64c0,.11-.17.08-.18.19,0,.09.3-.06.51.19.12.12.18.3.12.48.05.15.03.31-.05.44-.02.03-.03.05-.03.09-.16.01-.33-.04-.46-.17.12-.07.22-.13.33-.16,0-.01.01-.02,0-.03l-.36.12c.02-.13.09-.22.08-.36l-.16.29-.17-.34c.01.16.09.28.13.42-.16.02-.32,0-.42-.15-.1-.13,0-.37.13-.53.02-.02.1-.05.08-.09l-.04-.09c.08-.19.27-.3.46-.32Z"/>
      <path class="st169" d="M23.72,15.73c0,.15-.07.27-.16.37-.04-.03-.08-.06-.13-.07-.11.08-.22.12-.35.11-.13.11-.28.13-.41.06-.01-.16-.07-.3-.16-.43.02,0,.09-.03.12,0l.25.24s.02.01.03,0l-.21-.26.29-.04c-.1-.06-.19-.03-.3-.06.08-.1.17-.16.22-.28l-.3.27s-.12.01-.16,0c0-.04,0-.08-.02-.11-.09-.16,0-.26-.02-.35.07,0,.09-.09.17-.15.01.05.05.08.04.16.05-.01.09-.03.14-.02.12-.03.23,0,.33.07.25.03.43.22.46.48.06.02.11.01.17.01Z"/>
      <path class="st202" d="M21.92,10.09l-.12.69s-.07,0-.11-.04l-.11.54-.13-.11-.1.47s0,.07-.03.1c-.05.06-.09-.08-.15-.07-.01,0,0,.06,0,.07-.07.1,0,.23-.09.31,0,0-.03,0-.04-.02l-.1-.07-.37-.32.3-.36.62-.73.23-.28c.06-.07.11-.16.2-.19Z"/>
      <path class="st15" d="M17.3,8.87c0,.14.14.25.14.41-.05,0-.09-.03-.13,0l.1.21s0,.11.05.15c.04.03.02.1.03.16h.04s0,.04-.03.03c0,0-.02-.02-.04-.02l-.55-.04s-.05-.03-.08-.02c0,0-.01-.02,0-.04l.1-1.11.07-.79s.01-.08-.02-.1l.04-.07c.09.22.19.43.3.67l-.11.02.18.44c-.05,0-.08,0-.13,0-.01.08.05.09.06.11Z"/>
      <path class="st152" d="M18.31,21.92s.1.1.07.16l-.14.42c.09-.11.12-.22.19-.34l.16.29s.03.02.02,0c.01,0,.02,0,.02.02l-.02.06.28.73s.03-.04.06-.04c.02,0,.03,0,.04.02-.33.16-.74.04-.87-.34-.07-.03-.14-.06-.2-.11.02-.08.06-.16.06-.26-.06.02-.1.04-.15.02l.16-.61.31-.03Z"/>
      <path class="st113" d="M16.82,9.74l-.09-.02c-.13,0-.26-.03-.38-.05l-.2-.04.08-.14.22-.32-.15-.03.08-.14.21-.32c-.06,0-.1,0-.16-.03l.28-.42s-.07,0-.11-.04c.14-.16.27-.33.36-.51.04.02.03.06.02.1l-.07.79-.1,1.11s0,.03,0,.04Z"/>
      <path class="st196" d="M13.09,21.21s.04.09.05.14l.42.26-.26.19s-.02.02-.02.03c0,.01-.01.04,0,.05-.04-.03-.08-.04-.14.03l.13.1-.45.27.12.1-.42.25s.05.05.09.07l-.57.35s-.01-.08-.01-.11c.05,0,.08-.03.11-.08l.44-.79.33-.62c.12-.22.02-.23.04-.26,0-.01.03-.02.05-.02.01,0,.02.06.04.05h.06ZM13,21.26c-.06.03-.02.08.01.07.02,0,.03-.02.04-.04s-.01-.05-.05-.03Z"/>
      <path class="st95" d="M20.63,21.8c.04.05.02.14-.01.2l-.24.42c-.04.08-.06.17-.03.26.02.06.08.1.15.15-.07.06-.15.11-.24.15-.01-.07-.17.05-.32.02-.02-.02-.07-.02-.08-.04-.01-.02.02-.05.04-.07l-.15-.19s-.06,0-.06-.03v-.09c-.04-.16,0-.28.12-.39.04-.04.11-.03.16,0,.03-.06.07-.14.15-.1.03.01.05,0,.06,0,.02-.03,0-.05,0-.08-.06-.16.1-.25.1-.24,0-.01.01-.05,0-.06.16-.08.19.1.35.12Z"/>
      <path class="st125" d="M20.21,9.51s0,.03-.02.04c-.08,0-.17.1-.13.19.06.12.55.2.58.74-.07.09-.03.19.04.28l-.26.08-.08.05s-.07.01-.09-.05c-.02-.1.1-.08.09-.14,0-.06-.13.02-.17-.1-.02-.05,0-.1.08-.1l-.08-.13c-.13-.01-.24-.07-.3-.18-.05-.08-.06-.17,0-.27-.09-.05-.19-.05-.29,0-.17.09-.14.31-.19.3-.02,0-.02-.01-.01-.02-.04-.18.03-.39.22-.46.07-.03.11-.05.15-.1.08-.1.27-.1.38-.14.02,0,.05.02.09.02Z"/>
      <path class="st261" d="M10.07,14.92c-.04.09-.04.32-.04.48,0,.02-.02.05-.02.08l-1.13-.17-.43-.08c-.02.09.16.12.19.23l-.31-.25.59-.25s-.03.05-.02.08c0,.01.02.02.04,0l.04-.02c.11-.04.21-.08.29-.14,0,.04.02.07.02.13.05-.02.08-.03.1-.06l.25-.08s-.01.08,0,.11c.08-.04.16-.05.22-.1.04-.03.21-.04.22.03Z"/>
      <path class="st129" d="M10.85,19.88s-.04.04-.05.05h-.23s.08.03.14.05l-.14.13c.07,0,.1-.05.16-.07v.2c.05-.09,0-.22.14-.28.11.04.17.13.18.25s-.02.21-.11.27c-.08.05-.18.08-.27.02-.09.06-.2.09-.3.04-.08-.04-.17-.1-.2-.21-.04,0-.03-.01-.03-.03-.04-.15,0-.35.15-.45,0-.07.02-.14.07-.19.06-.05.15-.07.24-.07l.05-.03c-.02.07.18.09.19.3Z"/>
      <path class="st115" d="M20.29,21.67s0,.04,0,.06c0,0-.16.08-.1.24,0,.03.03.05,0,.08,0,.01-.04.02-.06,0-.08-.03-.12.04-.15.1-.05-.02-.11-.03-.16,0-.12.11-.15.23-.11.39v.09s.04.02.06.03l.15.19s-.06.05-.04.07c.01.01.05.02.08.04.15.04.31-.09.32-.02-.13.05-.26.09-.42.01-.17.06-.36.02-.5-.11.06-.14.02-.31-.03-.46.03-.08.09-.18.08-.28.07-.02.18-.04.26-.08l.11-.11s.05.07.1.1c.01-.07-.03-.13-.07-.15.06-.11.08-.25.05-.37.05-.03.09-.09.16-.1.08.09.19.2.3.25Z"/>
      <path class="st136" d="M11.1,11.18s0,.04.02.06c.01.01.03,0,.05,0,.02.03.06.02.08.02l.11.52c.07-.02.1-.07.15-.13l.06.4s-.09.08-.15.12c-.03-.03-.11-.04-.12-.12l-.06-.42s-.01-.01-.02-.01v.4s-.23-.16-.23-.16c-.02-.01-.03-.02-.04.02l-.14-.14-.43-.35c.17-.23.46-.32.72-.19Z"/>
      <path class="st59" d="M10.95,11.87l.21.21c-.12.04-.22.04-.34.06.1.01.22.03.32,0,.02.15-.07.29-.2.38-.02.01-.07,0-.08.04-.07-.16-.2-.29-.38-.33,0-.03-.02-.03-.02-.04-.26-.25-.25-.57-.06-.84l.43.35.14.14Z"/>
      <path class="st178" d="M10.44,12.21s.02.02.02.04c.18.04.31.17.38.33,0,.05.03.09.07.12-.03,0-.03.02-.03.04,0,.02,0,.04.03.04-.02.16-.06.33-.19.45-.03,0-.04-.02-.04-.05v-.32c.01-.12-.07-.21-.16-.27-.13-.08-.27-.08-.4-.11-.56-.14-.72.27-.87.15-.04-.03-.08-.06-.13-.07.2-.37.64-.53,1-.27.14-.08.27-.02.31-.07Z"/>
      <path class="st60" d="M13.63,9.56l.14.19c.12.22.08.48-.05.68,0,0-.02,0-.02,0v.02c-.08,0-.11-.03-.13-.08-.05-.14.12-.27,0-.44-.09-.13-.21-.22-.33-.32-.2-.17-.45-.25-.71-.19l-.15-.23c.35-.21.86-.11,1,.3l.25.06Z"/>
      <path class="st108" d="M16.08,22.15s.04.1.02.13l-.07.09c-.06-.06-.16-.08-.25-.05-.06.02-.12.11-.13.19s-.14.09-.13.19c0,.07.04.11.11.11.02,0,.04,0,.04.01,0,.02-.01.05-.04.06,0,0,.02.03.03.03s0,.02,0,.01c0,0-.03-.01-.04-.02-.04.03-.09.08-.12.14.06.01.1,0,.14.04l-.28.33.1.04c-.17.16-.27.32-.4.48l-.04-.11s.02,0,.03,0c.01,0,.03-.02.03-.05l.21-1.29s.05,0,.07,0c0,.03.06.07.1.05.02-.16.11-.32.25-.4.13-.06.27-.06.37.02Z"/>
      <path class="st53" d="M21.29,12.34s.08-.11.13-.11h.23s0-.04,0-.04c-.06.01-.12.01-.2-.01l.11-.13h-.02s-.13.09-.13.09v-.23s-.05.27-.05.27l-.28.25c-.06-.09-.12-.18-.19-.25v-.12s.03-.06.03-.1l.1.07s.04.03.04.02c.1-.08.02-.21.09-.31,0-.01,0-.07,0-.07.06,0,.09.13.15.07.03-.03.03-.07.03-.1.01,0,.02,0,.04,0-.06.17.2-.05.39.07.17.1.17.35.06.49,0,.04,0,.1-.03.12l-.21.1c-.07.03-.16-.04-.24-.03-.03,0-.05-.05-.06-.05Z"/>
      <path class="st38" d="M21,10.47l-.21.08c.06.05.1.07.13.13l-.25.08c-.06-.09-.1-.19-.04-.28-.03-.55-.52-.62-.58-.74-.04-.08.05-.18.13-.19.03,0,.03-.03.02-.04.16,0,.31.07.44.18.13.09.22.22.25.36.12.11.11.27.1.42Z"/>
      <path class="st58" d="M16.38,9.01l-.08.14.15.03-.22.32-.19.02-.17-.07.18-.23s-.01,0-.02,0l-.22.22c0-.11-.01-.21-.05-.3l-.03-.66c.23-.04.48.12.54.38.02.08.02.14.11.17Z"/>
      <path class="st141" d="M22.81,13.19s-.01.1,0,.14l.04.02s-.07.07-.09.13c-.03.1-.13.17-.17.26l-.2.13c0,.2-.1.32-.19.45-.07,0-.12.06-.21.08-.23.05-.49-.03-.64-.22-.09-.12-.09-.27-.13-.4.05-.04.1-.1.16-.11,0,.04.01.07.04.12.08.11.14.29.27.36.24.09.51-.1.57-.35.05-.07.13-.16.2-.2.07-.05.05-.08.08-.12l.18-.21s.04-.07.08-.08Z"/>
      <path class="st215" d="M10.03,19.37h.49s0,.09,0,.12c-.1-.02-.19.02-.26.08,0,.02.04.05.04.04,0,0,.03-.03.04-.02-.01.03-.02.08.01.09-.05.05-.07.12-.07.19-.15.09-.19.29-.15.45-.27.01-.47-.22-.57-.48,0-.04,0-.06.03-.07l.09-.04c.18-.13.18-.36.33-.36Z"/>
      <path class="st254" d="M9.78,16.42c-.1,0-.2,0-.28-.12-.03.06.03.1.08.12-.04.06-.11.03-.17.05l.17.04-.07.1s-.06,0-.04.04c-.04,0-.04.03-.06.05-.04.06-.1.13-.17.16-.17-.02-.29-.18-.29-.37,0-.22.15-.4.36-.39.02-.07.06-.1.12-.11.12-.03.22.04.29.12.08.09.07.2.05.32Z"/>
      <path class="st258" d="M15.2,22.48l.08.02-.21,1.29s-.02.05-.03.05c0,0-.02,0-.03,0l-.18-.48h.09s-.14-.42-.14-.42c.05,0,.07.02.1,0,.02,0,.02-.04,0-.05,0,0-.02-.03-.02-.04-.03-.15-.1-.23-.1-.31.12-.02.23-.08.3-.18.02.02.02.09.07.07.03.02.06.06.1.06Z"/>
      <path class="st239" d="M22.13,11.7s.08.04.11.05c.49.17.37.57.44.63.02.02.08.05.12.03l.14-.05c-.04.15,0,.25-.12.41-.02.03,0,.11-.05.11-.11-.29-.34-.52-.64-.58.04-.11-.02-.21-.09-.28.03-.11,0-.23-.06-.32.05-.02.1-.02.15-.02Z"/>
      <path class="st92" d="M8.73,17.84c-.07-.41.11-.76.52-.84.02-.05,0-.1,0-.14.07-.02.13-.09.17-.16.11,0,.25-.06.35,0s.19.13.22.25l-.23-.02c-.18.03-.31.15-.45.24-.22.14-.37.34-.38.62l-.14.09s-.04-.05-.06-.04Z"/>
      <path class="st187" d="M19.03,21.99s-.03.07-.08.09c.24.39.23.61-.02.96h.2s.02.05.03.08c-.04.04-.09.09-.15.11,0-.02-.03-.02-.04-.02-.03,0-.05.02-.06.04l-.28-.73.02-.06s0-.02-.02-.02l-.07-.31.33.1s0-.01.01-.02l-.14-.06c-.01-.09.2-.18.26-.17Z"/>
      <path class="st263" d="M22.95,13.92s-.08.07-.1.12c-.01.03-.05.05-.08.08-.01-.05-.02-.08-.06-.11l-.16.28-.1-.1c-.05.1-.11.16-.19.23-.05.01-.07-.07-.08-.12.09-.13.19-.25.19-.45l.2-.13.4-.15.4-.15s.05-.02.05-.03v-.04s.03,0,.04.02c0,.01,0,.02,0,.03l-.36.48s-.04-.06-.06-.1l-.09.13Z"/>
      <path class="st13" d="M19.18,8.94c.11.16.14.38.03.57.04.08.06.16.07.24.01.09-.02.18-.07.25-.09.02-.16.03-.24.04,0-.04.01-.06.03-.09.08-.13.1-.29.05-.44.06-.18,0-.36-.12-.48-.21-.26-.52-.11-.51-.19,0-.11.19-.07.18-.19.24-.02.45.09.59.3Z"/>
      <path class="st131" d="M22.86,14.05c0,.06.07.09.1.13.11.16.11.36.06.55-.01.05.04.09.07.09.09,0,.13-.09.21-.13-.03.13-.09.25-.19.34-.13-.06-.26-.12-.4-.07.04-.09-.16-.14-.15-.2,0-.03.02-.05.06-.06-.03-.04-.02-.07,0-.09.01-.01.03-.02.03-.03,0-.02,0-.04-.03-.06.02-.08-.02-.17-.08-.22l.16-.28s.04.06.06.11c.03-.02.07-.05.08-.08Z"/>
      <path class="st78" d="M18.13,8.96l.04.09s-.06.07-.08.09c-.14.16-.23.4-.13.53.1.14.26.17.42.15l-.07.15s-.04-.03-.05-.03c-.17.04-.27-.05-.39-.11-.02-.06-.06-.07-.07-.15-.03.02-.04,0-.05,0,.01,0,.03,0,.05-.01-.09-.16-.06-.33.02-.48l-.12-.21c-.09-.08-.18-.13-.29-.09-.02-.04-.04-.04-.06-.06.17-.15.44-.12.59.06.03.04.12.05.14.13.04,0,.05-.05.06-.07Z"/>
      <path class="st20" d="M12.6,11.01c-.06,0-.13.03-.19,0-.04-.04-.11-.04-.16-.09l.07-.11c-.08-.06-.17-.04-.25-.07-.07-.18-.08-.37.02-.54-.2-.32-.08-.75.22-.95-.05.33-.23.61-.05.99-.07.22,0,.45.16.6l.17.18Z"/>
      <path class="st156" d="M10.78,10.04c.1.19.26.33.39.48.11.12.2.26.34.36,0,0,0,.01,0,.03l-.14.12s-.09.07-.12.12c-.02.02-.06.05-.07.08-.02.01-.03.02-.05,0-.02-.02-.02-.04-.02-.06l-.12-.47s-.05.06-.1.08c-.03-.28-.19-.8-.12-.76,0,0,.01,0,.02.01Z"/>
      <path class="st155" d="M21.21,20.68v.19c.24.22.19.58-.05.8-.01-.05-.04-.09-.08-.13.09-.16.12-.34.06-.51-.02-.05-.06-.07-.08-.11-.23-.33-.39-.29-.46-.39-.02-.03,0-.1.03-.13.18-.03.34.02.52.09l-.08.15.15.04Z"/>
      <path class="st146" d="M15.75,9.12l-.05.28c-.08-.06-.13-.14-.22-.17l.22.27v.12c-.06.02-.1.07-.17.07-.05,0-.09-.04-.11-.11l.18-.05c-.15-.24-.44-.37-.26-.52l-.03-.07c.13-.34.38-.38.38-.39,0-.03,0-.09,0-.11h.03s.03.66.03.66Z"/>
      <path class="st132" d="M21.11,21.72c-.08.08-.18.11-.32.11.12.37,0,.76-.29.99-.07-.05-.13-.09-.15-.15-.03-.09-.02-.18.03-.26l.24-.42c.04-.06.05-.14.01-.2.16.03.32,0,.46-.1.01,0,.03.01.03.02Z"/>
      <path class="st101" d="M19.39,22.13c.01.1-.05.2-.08.28.06.15.09.32.03.46-.04.1-.11.19-.19.26,0-.03,0-.06-.03-.09h-.2c.25-.36.26-.58.02-.96.05-.02.08-.05.08-.09.02,0,.04-.01.06-.02.08.08.2.13.3.16Z"/>
      <path class="st98" d="M14.45,23.02c-.04.06-.13.09-.19.13-.07.12-.12.24-.24.31-.23.13-.49.1-.69-.04,0-.03.03-.04.03,0,.04,0,.08.02.1.05.03-.07.07-.08.11-.13.25,0,.49-.11.62-.35.13-.06.2-.18.2-.33l.03-.13s.06-.04.09-.03c.06.13.07.3,0,.41l-.06.1Z"/>
      <path class="st96" d="M20.12,9.49c-.11.04-.3.04-.38.14-.06-.16-.16-.31-.31-.39-.06-.03-.07-.06-.07-.11,0-.14.08-.13.07-.2.36.05.56.21.7.57Z"/>
      <path class="st244" d="M22.34,18.6c.02.09-.09.09-.07.23,0,.04.05.08.11.08.03.08-.08.09-.07.17,0,.03,0,.05.05.08-.08.07-.05.16,0,.22-.03-.02-.1-.03-.13-.01-.05.02-.03.09-.05.12-.02.02-.07.03-.06.07.01.05.09.03.14.08.02.02.01.04,0,.06-.14.02-.26-.05-.3-.2-.05-.14,0-.31.12-.4.03,0,.05,0,.1-.01-.04-.04-.07-.09-.12-.1-.02-.1-.01-.2.06-.28.06-.07.15-.11.24-.1Z"/>
      <path class="st74" d="M23.12,15.02c.03.06.08.09.16.07.3.05.46.35.44.64-.05,0-.11,0-.17-.01-.03-.26-.21-.45-.46-.48-.09-.07-.21-.09-.33-.07-.06,0-.1.01-.14.02,0-.08-.03-.12-.04-.16.05-.03.09-.06.14-.08.14-.05.26,0,.4.07Z"/>
      <path class="st230" d="M19.43,8.92c0,.06-.08.06-.07.2,0,.05.01.08.07.11.15.09.25.23.31.39-.04.05-.08.08-.15.1-.18.07-.26.29-.22.46-.02,0-.05,0-.05-.03v-.06s-.04-.02-.06-.02c-.02-.15.14-.42,0-.34-.01-.08-.02-.16-.07-.24.1-.19.07-.4-.03-.57.09-.02.16-.03.24-.02Z"/>
      <path class="st139" d="M14.26,9.5c.02.06.02.12.05.18-.08,0-.11-.05-.15-.06l-.02.02.14.08s.04.07.05.1c-.05.08-.14.12-.23.1v.03c-.1-.27-.24-.21-.29-.27.02-.07.02-.14.09-.2-.04-.11-.03-.22.05-.3.05-.06.11-.11.17-.14l.14.46Z"/>
      <path class="st310" d="M17.08,22.97s-.05.02-.08.04l-.17.15-.02.17-.22-.03-.26.1c-.01-.09.05-.12.1-.16.18-.12.24-.31.27-.51.03-.15.06-.29.09-.28l.28.31c-.06.02-.1.03-.15.06l.14.14Z"/>
      <path class="st192" d="M22.94,12.37l-.14.05s-.1-.01-.12-.03c-.08-.07.05-.46-.44-.63-.03,0-.06-.06-.11-.05.1-.07.24-.08.36-.04.3.11.51.45.45.71Z"/>
      <path class="st47" d="M17.74,9.68c-.07-.02-.13-.08-.17-.15.01-.08.02-.16,0-.25-.06.06-.05.15-.07.22l-.1-.02-.1-.21s.08,0,.13,0c0-.16-.13-.27-.14-.41l.04-.03s.04.02.06.06c.11-.05.2,0,.29.09l.12.21c-.08.14-.11.32-.02.48-.02,0-.03,0-.05.01Z"/>
      <path class="st165" d="M23.31,14.69c-.08.04-.12.14-.21.13-.03,0-.09-.05-.07-.09.05-.19.05-.38-.06-.55-.03-.04-.09-.07-.1-.13.02-.05.07-.08.1-.12.31.11.42.46.35.76Z"/>
      <path class="st307" d="M22.58,16.89s.03.03.05.05c.08.04.15.1.21.17.07.1.11.22.13.34.02.1,0,.2-.02.29-.07.01-.12-.03-.18-.04.07-.63-.53-.62-.5-.73.02-.07.09-.1.14-.13.04.08.11.09.17.06Z"/>
      <path class="st219" d="M11.39,10.36l.48.15c-.03.07-.08.08-.11.13-.04-.01-.05.02-.02.04l-.23.2c-.13-.1-.23-.24-.34-.36.05-.08.17-.18.22-.16Z"/>
      <path class="st226" d="M23.64,18.06l-.56.17s.02-.07,0-.09l-.42.13s.01-.07.02-.09c.01-.05.06-.06.09-.1l.18-.22.63.15s.07,0,.07.05Z"/>
      <path class="st305" d="M9.75,14.38c.1.04.16.14.21.24.03.06,0,.14-.04.19-.02,0-.04,0-.06.02-.01.01-.05.03-.01.06-.06.05-.13.06-.22.1-.02-.03-.01-.06,0-.11l-.25.08c-.08-.18.33-.13.28-.35-.02-.09-.14-.09-.15-.13.06-.08.15-.1.24-.1Z"/>
      <path class="st183" d="M23.64,18.06s-.03-.04-.07-.05l-.63-.15s0-.09,0-.13c.02-.09.04-.19.02-.29l.23.21s.02-.05.03-.09l.5.48s-.07,0-.08.01Z"/>
      <path class="st233" d="M23.43,13.36v.04s-.03.03-.04.03l-.4.15-.4.15c.04-.09.14-.16.17-.26.02-.06.04-.09.09-.13.01,0,.04.01.05,0,0-.02,0-.06,0-.08l.53.1Z"/>
      <path class="st10" d="M10.32,18.36l-.07.07c-.25.25-.49.06-.48.18-.04-.07-.1-.13-.17-.16v-.06c-.04-.09.26-.06.47-.15l.15.12s.08-.01.09,0Z"/>
      <path class="st90" d="M10.17,14.09s.08.03.1.04l-.17.1c.08,0,.14-.02.18-.05,0,.1-.02.2-.09.28-.21-.04-.4-.24-.43-.22l-.04.03s-.06-.05-.09-.05c-.03-.04-.04-.09-.05-.13.02,0,.03-.02.03-.05.18.1.37.09.56.05Z"/>
      <path class="st306" d="M22.77,19.35c-.06.17-.2.26-.38.28l-.14.06s.02-.04,0-.06c-.04-.05-.13-.02-.14-.08,0-.04.04-.05.06-.07.02-.03,0-.1.05-.12.03-.01.1,0,.13.01.03.07.2-.06.27-.17,0,.07.08.13.14.14Z"/>
      <path class="st268" d="M22.77,19.35c-.06-.01-.15-.07-.14-.14v-.25s-.04-.14-.08-.11-.09.08-.16.06c-.06,0-.1-.04-.11-.08-.02-.14.09-.14.07-.23.1,0,.2.04.21.17.23.01.3.34.22.58Z"/>
      <path class="st33" d="M10.43,14.22c.01.11,0,.24-.09.32-.07.06-.17.08-.25.08h-.13c-.05-.1-.1-.2-.21-.24.03,0,.03-.03,0-.03-.06-.03-.09-.08-.12-.12.03,0,.06.03.09.05l.04-.03s.22.18.43.22c.07-.08.1-.18.09-.28.06-.04.09,0,.14.03Z"/>
      <path class="st160" d="M11.39,10.36c-.05-.02-.17.08-.22.16-.14-.15-.29-.29-.39-.48l.7.21c-.05.05-.09.07-.08.11Z"/>
      <path class="st71" d="M23.56,16.1c-.1.11-.24.18-.42.14l-.1.1s-.08.06-.12.07c-.07,0-.15.02-.22,0-.05-.02-.04-.1-.05-.13,0-.02,0-.05.01-.07.13.08.28.05.41-.06.13.01.24-.03.35-.11.05,0,.08.04.13.07Z"/>
      <path class="st130" d="M14.39,9.04l-.05.24c.07,0,.1-.01.16-.02l-.09.34s-.03.05-.07.08c-.02-.08-.04-.14-.09-.18l-.14-.46c.09-.03.17-.02.27,0Z"/>
      <path class="st40" d="M13.81,9.68c.05.06.19,0,.28.27l-.03.11s-.03.05-.06.07l-.15.21s-.06.1-.11.09c.13-.2.16-.46.05-.68l-.14-.19c.06.02.13.06.17.12Z"/>
      <path class="st208" d="M9.38,14.96s-.05.04-.1.06c0-.06,0-.1-.02-.13-.04-.18.08-.37.25-.41,0,.05.12.05.15.13.06.22-.35.17-.28.35Z"/>
      <path class="st173" d="M15.7,8.46s0,.08,0,.11c0,.01-.25.05-.38.39l-.1-.1c.07-.22.26-.37.48-.4Z"/>
      <path class="st170" d="M17.08,22.97l.1.12c-.07.15-.22.23-.36.25l.02-.17.17-.15s.05-.05.08-.04Z"/>
      <path class="st110" d="M10.96,19.92s-.06.04-.08.05c-.13.06-.08.19-.15.28v-.2c-.05.03-.08.07-.15.07l.14-.13c-.06-.02-.1-.02-.14-.06h.23s.03-.04.05-.04c.03,0,.06-.04.07-.06l.14-.1s.12.08.07.1l-.18.09Z"/>
      <path class="st80" d="M23.21,16.72s-.1.02-.11,0c-.04-.18-.16-.23-.16-.31.03-.01.09-.04.12-.07.09.13.17.2.16.39Z"/>
      <path class="st120" d="M8.88,15.31s-.07.02-.07.06c0,.07-.07.12-.09.18-.03-.02-.08-.05-.09-.09-.03-.11-.2-.14-.19-.23l.43.08Z"/>
      <path class="st35" d="M9.78,16.42h.12s.07-.01.07-.01c.02,0,.05,0,.06.02,0,.01,0,.04,0,.05,0,.01-.03.02-.06.02h-.07s-.13,0-.13,0c-.2-.05-.22.17-.26.09l.07-.1-.17-.04c.06-.02.13.02.17-.05-.05-.02-.11-.05-.08-.12.08.12.17.13.28.12Z"/>
      <path class="st252" d="M21.92,18.92s.07.06.13.07c.04,0,.08.06.12.1-.05.02-.07.01-.1.01l-.17-.05s-.09-.02-.09-.05c-.01-.06.08-.1.12-.07Z"/>
      <path class="st175" d="M16.14,17.53l.02.28s.1.07.12.12c.04-.06.04-.09.04-.13l.39-.04c.23-.03.46.16.5.4.05.31-.19.47-.19.46-.02.08.18.14.24.09.07-.05.01-.2.18-.3l.27.24c-.28.04-.45.29-.43.58-.04-.01-.08.01-.1.06l-.09.31-.7-.13c.07-.13.11-.26.12-.4.26-.1.53-.34.37-.5l-.09.21c-.18.07-.38.05-.57-.03v-.05s-.05-.01-.06.02c-.13-.04-.25-.09-.35-.2-.15-.01-.28-.12-.32-.26-.01-.05,0-.1.02-.14s.06-.06.13-.07c-.03-.08-.06-.13-.06-.22-.15.09-.23.25-.24.42-.13.12-.23.29-.25.47h-.12s-.04.03-.04.05l-.7-.51c-.06-.04-.12-.07-.1-.14.05-.04.1-.07.13-.12l-.16-.18-.27.25s-.03,0-.03-.02c0-.03.14-.28.14-.47.09-.15.18-.3.19-.49l.21-.23s.02-.06.02-.08c.05-.01.1-.04.11-.1.07.03.11.1.16.16.26.29.53.55.84.78l.22.12s.16.03.21-.01l.2-.18ZM17.15,18.16s-.01-.02-.01-.05c0-.08-.32-.26-.58-.11-.12.07.15.36.49.31.07,0,.14-.11.1-.15Z"/>
      <path class="st11" d="M16.63,19.95c-.03.08.13.14.27.41.08.17.05.38-.06.54-.04.34-.27.61-.6.71-.03.08-.03.17,0,.25h-.04s-.15-.02-.15-.02c-.13-.02-.24-.06-.35-.15-.15-.12-.26-.35-.28-.52-.01-.1-.15-.13-.21-.31-.07-.19-.04-.41.07-.58.09-.14.2-.24.35-.28s.28-.01.42.04l.02.18-.35.48c.15-.08.22-.22.36-.33.04.15.02.28.08.43l.05-.43.35.3s.02,0,.03,0l-.37-.42v-.19c.12-.08.27-.14.4-.12Z"/>
      <path class="st104" d="M14.93,19.04s.02.09,0,.13l-.24.22.24-.13c0,.1-.02.18,0,.28l.07-.25c.08.07.11.17.21.22l-.18-.32s.04-.1.04-.13c.17-.02.18-.06.34.03,0,.04,0,.08.03.12.09.18.03.37-.11.5-.05.23-.25.39-.46.36s-.38-.22-.37-.46c-.07-.16-.04-.34.07-.47-.03-.05-.02-.09-.02-.14.13-.06.27-.05.39.05Z"/>
      <path class="st4" d="M18.76,20.11l.06-.02c.07-.13.17-.13.27-.19.03.02.09.02.1-.03,0-.02,0-.06-.03-.09.11-.12.19-.22.36-.26.04-.01.1-.02.16.02-.19.08-.27.22-.28.4,0,.11.04.26.18.26.11,0,.2-.13.26-.21l.1-.14c0,.05.03.13,0,.17-.03.06,0,.09,0,.13-.05.35-.35.55-.68.55-.2,0-.41-.04-.5-.25-.05-.11-.06-.24-.02-.34Z"/>
      <path class="st121" d="M17.72,18.64s.04.04.07.06l-.06.06c-.02.26.02.6.2.74.2.16.42.22.66.2.12-.01.09-.1.25-.04.02.05.1.06.14.07.02.06.08.11.13.16-.1.06-.21.06-.27.19l-.06.02s-.02-.04-.04-.05c0-.04,0-.1-.03-.12-.08-.04-.44.15-.73-.19-.22.07-.43-.01-.55-.19-.08-.11-.12-.22-.13-.34-.02-.29.15-.54.43-.58Z"/>
      <path class="st194" d="M16.52,19.06c-.21.08-.44.09-.64-.03-.11-.06-.2-.14-.24-.27-.2-.11-.29-.31-.28-.53,0-.17.09-.32.24-.42,0,.09.03.15.06.22-.07.01-.11.04-.13.07s-.04.09-.02.14c.04.14.16.25.32.26.09.11.21.17.35.2.01-.03.07-.02.07-.02v.05c.18.08.38.1.56.03l.09-.21c.16.16-.11.41-.37.5Z"/>
      <path class="st315" d="M16.98,21.21s0,.06-.01.09c-.06.25-.24.45-.49.53-.08.03-.16.04-.24.04-.03-.07-.03-.17,0-.25.33-.1.55-.37.6-.71.11-.17.14-.37.06-.54-.13-.27-.3-.33-.27-.41.26.04.51.26.56.53.04.22-.04.42-.2.54v.18Z"/>
      <path class="st180" d="M19.64,18.58c-.07.17-.17.39-.17.59,0,.12,0,.24.06.35-.17.05-.25.14-.36.26-.04-.04-.06-.09-.11-.1-.02-.05,0-.09.03-.13.2-.25.18-.71-.09-.93l.49-.05c.06,0,.11-.03.16,0Z"/>
      <path class="st39" d="M15.41,19.09c.11.06.19.19.2.31.03.29-.21.38-.21.42,0,.02.02.04.01.06-.07.16-.2.32-.37.35-.09.02-.18.02-.28-.01-.21-.07-.37-.26-.36-.49,0-.14-.18-.23-.08-.47.05-.12.12-.22.22-.26,0,.05,0,.1.02.14-.11.13-.14.32-.07.47,0,.24.15.43.37.46s.41-.13.46-.36c.14-.12.2-.32.11-.5-.02-.04-.03-.08-.03-.12Z"/>
      <path class="st31" d="M18.18,20.53c-.06-.03-.09,0-.14.02-.16.08-.35.15-.3.31,0,.02.04.04.07.06.11.06.2,0,.24.06-.19.18-.51.17-.7-.03l.13-.24c.01-.14.06-.22.18-.27.02,0,.05-.02.06-.03.02-.02.02-.05.02-.08.12-.02.23-.07.33.02.04.04.06.12.1.17Z"/>
      <path class="st127" d="M19.07,21.25l.07.1c-.02.09-.06.17-.04.27.04-.07.05-.14.07-.23.09.08.1.17.15.15l.21.39c-.2.12-.3-.02-.49-.12,0,.03,0,.06.02.09-.13.01-.28-.08-.3-.24-.01-.1.01-.24.08-.32.05-.08.15-.07.22-.1Z"/>
      <path class="st94" d="M20.49,20.44l-.09.15s-.03.09-.03.13l-.28-.33s.03-.09.08-.14c.12-.09.2-.21.3-.33,0-.09.05-.16.1-.23.08.02.17,0,.19.05.01.03-.03.05-.04.07,0,.03.05.05.08.04l-.28.49-.02.1Z"/>
      <path class="st65" d="M16.24,20.07v.19s.36.42.36.42c0,0-.02,0-.03,0l-.35-.3-.05.43c-.06-.14-.05-.28-.08-.43-.13.11-.21.25-.36.33l.35-.48-.02-.18-.05-.58h.23s0,.59,0,.59Z"/>
      <path class="st298" d="M18.78,21.67c.02.15.16.25.3.24-.03-.03-.03-.06-.02-.09.19.1.29.24.49.12,0,0,.02,0,.03,0,0,.04.03.09.08.11-.08.04-.19.06-.26.08-.1-.02-.22-.07-.3-.16-.02,0-.04.02-.06.02-.07,0-.28.09-.26.17l-.22-.12c-.07-.04-.05-.14-.07-.19.1-.05.14-.17.3-.18Z"/>
      <path class="st211" d="M19.66,21.07c.11.09.15.22.12.36,0,.02-.01.05,0,.07,0,0,.02.02.04.03.03.12.01.26-.05.37l-.03.05-.11.11s-.07-.07-.08-.11c.22-.31.08-.45.06-.52-.02-.1-.05-.22-.17-.24,0-.04-.01-.04-.03-.05-.05,0-.1-.04-.09-.1.11-.05.24-.03.33.04Z"/>
      <path class="st134" d="M18.48,21.86s0,.15.07.19l.22.12.14.06s-.01.01-.01.02l-.33-.1.07.31s-.03.03-.02,0l-.16-.29c-.07.12-.1.23-.19.34l.14-.42c.02-.06-.06-.12-.07-.16l-.19-.42.2-.09.16.44Z"/>
      <path class="st234" d="M18.18,20.53c.12.15.03.31-.12.45-.03-.06-.12,0-.24-.06-.04-.02-.07-.04-.07-.06-.06-.16.14-.23.3-.31.05-.03.08-.05.14-.02Z"/>
      <path class="st82" d="M20.37,20.72l.07.1.34.02v.04c-.08.01-.17-.03-.27.01l.14.23-.23-.18-.03.33-.03-.39-.4-.34c-.01-.09.08-.11.12-.16l.28.33Z"/>
      <path class="st43" d="M17.64,20.39s.03.02.03.06c-.12.04-.17.13-.18.27l-.13.24c-.16-.16-.12-.38.01-.5.08-.07.17-.08.27-.07Z"/>
      <path class="st316" d="M15.11,18.69c0,.06,0,.13-.02.2-.02.06-.02.12-.02.17,0,.03-.07.08-.04.13l.18.32c-.09-.06-.13-.15-.21-.22l-.07.25c-.03-.1-.01-.18,0-.28l-.24.13.24-.22s0-.1,0-.13c.02-.1.02-.2.02-.3,0-.02.02-.05.04-.05h.12Z"/>
      <path class="st314" d="M15.63,20.02c-.15.04-.26.14-.35.28l-.11-.05c-.09.03-.09.14-.13.21-.03-.08,0-.16,0-.24.18-.03.3-.19.37-.35.08-.01.17.02.23.07,0,.02-.01.06-.01.07Z"/>
      <path class="st222" d="M17.15,21.57c-.12.04-.08-.11-.18-.28,0-.03.01-.06.01-.09l.21-.04.08.35c-.06.01-.09.03-.12.05Z"/>
      <path class="st162" d="M19.16,21.18c.05.09.08.16.19.16.04,0,.09.02.12.04,0,0,0,0-.01.02-.07-.02-.13-.05-.22-.04l.09.18c-.06.02-.06-.07-.15-.15-.03.09-.03.16-.07.23-.01-.1.02-.18.04-.27l-.07-.1-.18-.27.12-.07.14.27Z"/>
      <path class="st294" d="M19.33,21.02c0,.06.04.09.09.1.03.05-.05.08-.05.11,0,.04.02.08-.02.11-.11,0-.15-.07-.19-.16.06-.04.07-.12.17-.16Z"/>
      <path class="st317" d="M17.76,20.34s0,.05-.02.08c-.01.01-.04.02-.06.03,0-.04-.01-.04-.03-.06-.03-.05-.07-.12-.07-.2,0-.05.11-.08.13-.04.04.06.04.13.05.19Z"/>
      <path class="st253" d="M12.8,15.54s.05.08.06.12l.05.19c.02.06.14.14.26.18.1-.09.24-.17.39-.16.05,0,.14.14.25.14.04.16.15.29.3.35v.25c0,.06,0,.14.02.2l.27-.06s0,.06-.02.08l-.21.23c0,.19-.1.34-.19.49,0,.19-.15.44-.14.47,0,.01,0,.02.03.02l-.12.12c-.03-.12-.07-.26-.17-.35-.26-.23-.65-.18-.87.09-.08.1-.11.23-.1.36-.13.1-.22.24-.26.39-.02.02-.07,0-.03-.03l-.28-.46.31-.19c-.03-.08-.08-.13-.13-.18l-.26.18c-.09-.01-.13-.11-.18-.19l-.09-.13c-.04-.05-.09-.11-.06-.18.08-.02.15.01.24.05.13.06.27-.05.33-.14.09-.13.05-.26,0-.39.11,0,.22-.06.19-.12,0-.02-.03-.03-.07-.02l-.14.04c.03-.22-.15-.45-.31-.41l-.07-.04c.09-.11.1-.25.04-.39l.34.06v-.16s0-.06.02-.09c.02-.03.3.03.64-.31ZM13.35,16.14c-.15,0-.22.52.05.74.04.03.12.03.15.01.17-.09.06-.74-.2-.75Z"/>
      <path class="st73" d="M12.46,12.01l-.06.07.12.17c-.02.22-.27.33-.31.51.07,0,.11.03.11.08-.07.01-.13.06-.15.11-.03.08-.03.16,0,.24.1.26.41.35.65.24.01,0,.04,0,.05.02-.05.05-.1.13-.03.2.13.13.34.14.5.1.04-.01.12-.04.15-.03.08.02,0,.13,0,.17-.04.15-.13.32-.27.4l-.11-.17c-.19.04-.39.04-.54-.08l-.04-.04s-.05.01-.06.04c-.02-.01-.04-.04-.08-.02-.07-.07-.15-.14-.27-.2l.28.37-.46.08.5.03c.09,0,.11.09.15.14-.01,0-.03,0-.04.02-.14.34-.49.49-.83.36-.19-.07-.35-.22-.46-.4-.16-.25-.17-.55-.12-.82.08-.37.33-.67.7-.76-.04-.12.08-.23.05-.32l-.09.02-.04-.21c-.03-.12-.02-.24-.08-.37-.03.06-.09.07-.11.09l-.06-.4c-.06.05-.09.11-.15.13l-.11-.52v-.1c.02-.05.06-.08.11-.12l.14-.12.95,1.11Z"/>
      <path class="st88" d="M15.06,15.13s-.08-.04-.12-.03v.18c-.02.06-.09.1-.13.16-.12-.01-.24.03-.35,0,.06-.15.01-.33-.16-.39-.08-.03-.17-.02-.25-.1-.02-.02-.08.03-.09.06-.05.14.14.34.25.37l-.25.16c-.15.1-.2.32-.16.49-.11,0-.2-.14-.25-.14-.15-.01-.28.07-.39.16-.12-.04-.25-.12-.26-.18l-.05-.19s-.02-.09-.06-.12c.06-.06.02-.2.04-.28.09-.09.21-.13.28-.23.06-.07.14-.12.19-.24l-.43-.36s.02-.03.05-.03c.11.01.2-.06.28-.11.13-.08.23-.25.27-.4.13.02.28.06.41.02.15-.04.31-.08.44-.17l.06.26c-.14.08-.24.17-.32.32.06.23.22.44.43.54.14.07.29,0,.34-.14.01-.03.04-.03.05-.03-.02,0,.12.08.15.15.05.1.12.1.2.11.14.03.25.08.41.08-.18.17-.4.17-.61.1Z"/>
      <path class="st2" d="M11.16,13.59s-.07.02-.1.02c0-.02-.01-.03-.03-.04l-.43-.22c.02-.05.08-.08.13-.12.13-.11.17-.28.19-.45.02-.02.03-.05.04-.08.15-.03.28-.11.33-.27l.05-.15.27.27c.05-.03.11-.09.1-.14l-.28-.25c.06-.04.1-.08.15-.12.03-.02.08-.03.11-.09.06.13.06.25.08.37l.04.21.09-.02c.03.1-.08.2-.05.32-.37.09-.62.39-.7.76Z"/>
      <path class="st267" d="M11.82,15.47c.09.13.1.3,0,.44-.03,0-.09.04-.13,0-.06-.08-.1-.17-.18-.22.03.09.09.16.14.24h-.29s.26.08.26.08l-.2.17s.03,0,.04,0l.22-.15s.1.02.14.03c.06.13.05.28-.04.39-.04.04-.09.09-.14.1,0-.02,0-.04-.01-.04-.07.03-.22-.02-.26-.05-.23-.2-.45-.19-.44-.55,0-.11.04-.17.1-.25.07-.09.16-.12.25-.16.13-.06.29-.08.42,0,.03.02.09,0,.14,0Z"/>
      <path class="st83" d="M12.15,16.89c-.06.02-.12.04-.17.11h.19c.06.12.1.25,0,.38-.06.09-.2.19-.33.14-.08-.03-.16-.07-.24-.05l-.14-.1c-.07-.05-.16-.2-.08-.28.05-.05.14-.04.16-.13.01-.08.03-.15-.01-.23.03-.04.06-.08.05-.12.13,0,.12.17.23.15.06-.01.1-.08.09-.16,0-.05-.06-.08-.05-.12.16-.04.34.19.31.41Z"/>
      <path class="st240" d="M12.4,14.03c.15.15.32.27.49.41l.43.36c-.05.11-.13.16-.19.24l-.14-.18-.21-.22-.17-.2s-.06-.13-.15-.14l-.5-.03.46-.08-.28-.37c.12.06.2.13.27.2Z"/>
      <path class="st181" d="M11.82,15.47c-.05,0-.11.03-.14,0-.13-.07-.28-.05-.42,0-.1.04-.19.07-.25.16-.06.08-.09.14-.1.25,0,.35.21.35.44.55.04.04.2.09.26.05.01,0,.02.02.01.04,0,.02-.03.04-.05.05-.18.06-.35-.03-.43-.2-.3-.03-.42-.33-.36-.59.05-.24.21-.33.43-.39.11-.03.19-.15.35-.1.08.03.18.07.25.17Z"/>
      <path class="st30" d="M10.6,13.34l.43.22s.03.03.03.04c-.02.07-.05.14-.11.21l-.42-.29s-.06-.06-.1-.07c-.03-.01-.07-.05-.11-.09-.18.04-.34.09-.52.1.15-.09.29-.11.45-.16l-.3-.27c.15.03.25.11.39.17l-.08-.48s.02-.01.02-.02l.15.52c.02.06.12.07.17.09Z"/>
      <path class="st207" d="M11.15,14.91s-.04.03-.04.05c0,.01.03.03.03.04,0,.09,0,.2-.08.26-.06,0-.11,0-.17-.02,0-.04,0-.07-.01-.08-.01-.01-.04,0-.05.01-.11-.17-.08-.37,0-.54.03-.06.09-.08.14-.08.08,0,.11.04.16.1.05.07.03.18.01.25Z"/>
      <path class="st164" d="M10.23,17.43l.49-.16.05.22-.51.11-.18.04-.21.3s-.03.1-.09.08l.19-.37-.4.03.38-.16c-.12-.1-.24-.15-.34-.27l.45.24.17-.06Z"/>
      <path class="st122" d="M10.6,15.01c.03.08.06.19.15.23l-.24.14s-.08.07-.13.05c-.03-.02-.06-.02-.1-.02.05-.18.05-.32.21-.4.01-.02.04-.08.08-.07,0,0,0,.06,0,.07,0,0,.03,0,.04,0Z"/>
      <path class="st56" d="M10.83,14.64c-.08.17-.11.37,0,.54.01-.01.04-.03.05-.01,0,0,.02.04.01.08.06.01.12.02.17.02-.09.07-.21.02-.31-.01-.09-.04-.12-.15-.15-.23-.04-.1-.01-.18.04-.29.04-.07.11-.13.19-.09Z"/>
      <path class="st191" d="M11.82,15.91l.33.04v.16s-.34-.06-.34-.06c-.03,0-.09-.06-.14-.03l-.22.15s-.02,0-.04,0l.2-.17-.26-.09h.29c-.05-.07-.11-.13-.14-.23.08.06.13.15.18.22.04.05.1,0,.13,0Z"/>
      <path class="st255" d="M10.54,13.52c0,.05-.04.1-.01.15-.02,0-.04.02-.05.03s.02.05.03.08l.03.06s.03,0,.05-.01c.01.11-.02.22-.11.29l-.1-.02s-.04-.09-.07-.13c.07-.07.1-.16.11-.28l.02-.23s.07.05.1.07Z"/>
      <path class="st179" d="M10.48,14.12l.28.1s-.03.1-.06.12l-.27-.11s-.08-.07-.14-.03c-.04.03-.09.06-.18.05l.17-.1s-.08-.05-.1-.04c0-.01.03-.04.04-.04l.07.02s.02-.07.02-.11c.02.04.02.12.07.13l.1.02Z"/>
      <path class="st210" d="M10.27,15.41s.07,0,.1.02l-.03.18-.3-.07s-.04-.05-.03-.06c0-.03.01-.06.02-.08h.24Z"/>
      <path class="st106" d="M11.84,16.48s.04.08.05.12c.02.08-.03.14-.09.16-.1.02-.09-.15-.23-.15v-.03s.04-.03.05-.05c.05-.01.11-.06.14-.1l.07.04Z"/>
      <path class="st265" d="M12.98,14.86c-.04.06-.08.11-.14.16l-.1-.33s0-.05.03-.05l.21.22Z"/>
      <path class="st91" d="M9.92,14.81h.14s.02.07,0,.1c-.01-.07-.18-.06-.22-.03-.04-.03,0-.04.01-.06.02-.02.04-.02.06-.02Z"/>
      <path class="st236" d="M10.53,13.67s.05.1.06.16c-.02.01-.04.03-.05.01l-.03-.06s-.03-.06-.03-.08.03-.04.05-.03Z"/>
      <path class="st97" d="M11.14,15s-.03-.03-.03-.04c0-.02.02-.04.04-.05.05,0,.11,0,.12.08-.04.03-.08.01-.12,0Z"/>
      <path class="st257" d="M14.95,18.74c0,.1,0,.2-.02.3-.12-.1-.26-.1-.39-.05-.11.05-.18.14-.22.26-.1.24.09.32.08.47-.15.01-.3.07-.41.2l.29.18-.27.23s-.09.05-.12.1l.13.06-.44.3s-.03.04-.02.05c0,.01.03.03.06.05l-.46.33s-.05,0-.05-.03l.07-.2.54-1.2s.06.04.07.02l.15-.26-.1-.06c.27-.11.42-.37.4-.66-.01-.25-.16-.45-.41-.51l.31-.24c-.02.07.04.1.1.14l.7.51Z"/>
      <path class="st84" d="M14.25,18.84c.01.29-.14.56-.4.66-.03-.02-.06,0-.09,0-.08,0-.15,0-.24-.02-.33.29-.82.19-1.07-.15-.04-.06-.07-.13-.09-.2l.14-.12s.05.04.07.08c.12.34.68.43,1.02.16.2.06.38-.05.49-.19.1-.14.13-.24.18-.23Z"/>
      <path class="st200" d="M12.41,20.18l-.26.25-.09-.08s-.05-.05-.08-.07c.1-.08.17-.17.27-.29.08.05.15.12.17.19Z"/>
      <path class="st72" d="M13.85,19.5l.1.06-.15.26s-.05-.01-.07-.02c-.02,0-.07-.02-.06-.05l.09-.25s.06-.02.09,0Z"/>
      <path class="st304" d="M14.03,11.84s.04.09.06.15c.25-.02.44.1.6.28.1.12.22.22.23.4.07.01.1-.03.15-.06-.01.12-.06.23-.12.31.05.07.05.12.11.15.3.16.6.27.93.26.02,0,.04.03.04.04l-.13.27c-.04.09-.04.19-.02.27-.17.07-.29.24-.33.42l-.12-.05c-.03-.19-.14-.28-.3-.33-.37-.12-.74-.03-.75.25,0,.06.09.13.15.11.22-.07.44-.08.66,0,.04.02.09.05.1.08.03.14-.13.16-.04.35.04.07.08.1.14.12.07.02.12-.01.18-.05.07-.04.14-.06.16-.14.05,0,.04.08.06.1.1.11.28.14.42.17.02-.08.02-.14.01-.22.15,0,.27-.09.38-.19.16,0,.09-.15.13-.33.11.02.19.09.31.11.04.17.08.24-.02.42s-.52.26-.79.21c0,.43.1.85.32,1.21.28.48.86.76,1.24.4.35-.33.07-.76.26-1.17.12-.26.37-.38.65-.31l.21.08-.02.04s.09.16.19.15l.08.22c-.07.03-.16.06-.16.14,0,.06-.02.12.02.19.22-.15.5-.09.63.16.39,0,.62.35.65.73h-.05s-.76-.12-.76-.12c0-.02,0-.03-.02-.04l-.41-.12.39-.35s0-.01,0-.02l-.49.34-.69-.15-.04.2s0,.03-.02.07c.1.17.22.33.37.46-.09.23-.14.48-.08.72-1.65-.05-2.57-.99-3.34-2.39-.04-.07-.07-.16-.08-.25.21.07.43.08.61-.1-.16,0-.28-.05-.41-.08-.08-.02-.15-.02-.2-.11-.03-.07-.17-.15-.15-.15-.01,0-.04,0-.05.03-.05.14-.2.21-.34.14-.21-.1-.36-.31-.43-.54.08-.15.19-.23.32-.32l-.06-.26c.06-.04.07-.15.18-.17.02,0,.05-.07.04-.08.04-.02.08-.03.12-.06l-.22-.51.14-.36s-.02-.01-.02-.02l-.15.29-.16-.3.06.31-.33-.13v.02s.35.2.35.2c.04.03.04.12.05.16-.06.04-.1.11-.17.14s-.16.05-.23,0c-.17-.11-.31-.31-.28-.53.01-.06.02-.09,0-.16l-.05-.14s0-.04-.02-.04c0,0-.02,0-.03,0,0-.18.07-.36.21-.47.02,0,.03,0,.03-.02l.13-.07s.02.05.04.05Z"/>
      <path class="st280" d="M14.28,10.76l.21.56.06.32-.31-.09c.17.16.38.13.33.31-.2-.11-.57-.14-.56-.02-.02,0-.04-.01-.04-.05l-.13.07c-.08-.14-.07-.31.04-.43.08-.09-.19-.4.23-.7.03-.02.07-.08.1-.06.02.01.06.05.07.08Z"/>
      <path class="st86" d="M14.52,10.61c.2.02.36.15.44.35.07.03.16.06.19.13.02.05.04.15.02.2-.05.2-.24.26-.44.28.01-.06.04-.13.08-.19l.02-.04s0-.03-.02-.03c-.05,0-.06.16-.17.31l-.15-.31-.21-.56s-.03-.05,0-.09c.03-.05.14-.07.24-.05Z"/>
      <path class="st0" d="M13.93,13.26l-.03.66c-.13.04-.28,0-.41-.02.01-.05.08-.15,0-.17-.04,0-.12.02-.15.03.05-.09.02-.21-.07-.28-.13-.09-.27-.07-.4-.02,0-.02-.04-.03-.05-.02.05-.06.07-.12.05-.22.13.02.25.04.37.13.05-.06.09-.09.14-.1.02-.13.13-.21.23-.25.05.15.19.21.33.27Z"/>
      <path class="st18" d="M13.21,10.97l.1.26c.09-.02.15-.06.22-.12-.02-.05-.06-.1-.08-.15.06-.01.16-.02.19.04.04.08-.03.15-.07.2-.17.23-.42.39-.71.47.04-.12.14-.16.21-.26l-.41-.17c.18-.14.37-.21.56-.27Z"/>
      <path class="st37" d="M13.23,10.62l.21.35s.06.1.08.15c-.07.06-.13.1-.22.12l-.1-.26-.12-.27s-.03-.12-.08-.15l-.46-.18.44.07c-.04-.14-.12-.23-.13-.38l.24.35.15-.44s.02.01.02.01l-.1.52s.06.08.07.11Z"/>
      <path class="st142" d="M13.83,11.89c-.14.11-.22.28-.21.47,0,.07.01.14.04.21,0,.04-.06.08-.07.11-.08-.01-.17-.05-.2-.12-.19-.37.4-.73.43-.71.01.01.02.02.02.04Z"/>
      <path class="st14" d="M12.63,12.38s-.03.04-.02.05c.01.03.04.02.06.03.04.03.02.08,0,.11-.06.09-.19.14-.2.26-.06.02-.1,0-.15.02,0-.05-.05-.08-.11-.08.04-.18.29-.28.31-.51.03.04.07.09.12.12Z"/>
      <path class="st176" d="M14,13.24s-.05.03-.07.02c-.13-.05-.28-.12-.33-.27-.03-.1-.05-.22-.02-.32.01-.03.07-.08.07-.11-.03-.07-.04-.14-.04-.21.01,0,.03,0,.03,0,.01,0,.01.03.02.04l.05.14c.03.08.01.1,0,.16-.03.22.11.42.28.53Z"/>
      <path class="st313" d="M12.63,12.38s-.09-.08-.12-.12l-.12-.17.06-.07.08-.07.27.29-.17.15Z"/>
      <path class="st269" d="M14.41,9.6l-.03.14.05.12s.03.08.06.1c0,.06,0,.12-.08.13-.01-.04-.05-.09-.05-.13,0-.05-.02-.1-.03-.16,0-.03,0-.07-.05-.1l-.14-.08.02-.02s.07.05.15.06c-.03-.07-.03-.13-.05-.18.05.04.07.11.09.18.04-.03.04-.06.07-.08Z"/>
      <path class="st186" d="M12.4,11.01s-.1,0-.17-.04c-.01-.01,0-.03.02-.05.05.04.11.04.16.09Z"/>
      <path class="st296" d="M13.74,18.16l-.12.13s-.07-.04-.09-.04c-.06-.16-.22-.28-.4-.29-.16,0-.28.11-.35.25l-.13.26c-.14.28-.05.44-.17.55l-.14.12c-.06-.16-.07-.33-.02-.49.04-.15.13-.29.26-.39,0-.14.02-.26.1-.36.22-.27.61-.32.87-.09.1.09.14.23.17.35Z"/>
      <path class="st163" d="M12.02,18.15s-.05-.04-.06-.07c-.01-.02-.02-.04-.03-.06-.02-.02-.01-.05,0-.06l.26-.18c.06.05.1.1.13.18l-.31.19Z"/>
      <path class="st232" d="M10.76,19.55s-.08.01-.11.03l-.05.03c-.08,0-.17.02-.24.07-.03-.02-.03-.06-.01-.09-.01-.01-.04,0-.04.02,0,0-.03-.02-.04-.04.07-.07.17-.1.26-.08.01,0,.03-.01.03-.02.04.02.09-.01.11-.06l.12.06s-.02.06-.03.09Z"/>
      <path class="st241" d="M10.76,19.55l.16.28s-.04.05-.07.06c-.02-.21-.21-.23-.19-.3.03-.02.07-.04.11-.03Z"/>
      <path class="st1" d="M10.68,19.41s-.07.08-.11.06c0-.03,0-.07.03-.09.03-.02.06.02.08.03Z"/>
      <path class="st262" d="M15.43,21.19c.02.17.13.4.28.52-.07.09-.29.02-.47.09l-.05-.1c-.07-.13-.23-.17-.37-.13,0-.02.07-.29.06-.3,0-.01-.02-.02-.03-.02v-.07c.19.06.4.07.58,0Z"/>
      <path class="st284" d="M14.15,21.8v.12s-.15.32-.15.32l-.08.16.15.4s-.01,0-.02.02l-.17-.33-.17.28.07-.34c-.11.03-.2.11-.32.09.12-.07.27-.1.36-.21.03-.03.03-.1.04-.13l.13-.41c.06.03.1.04.14.04Z"/>
      <path class="st167" d="M15.24,21.79c.06.15,0,.33-.15.4-.02.06-.03.12-.06.16-.07.1-.18.17-.3.18h-.09s-.07-.03-.06-.06c.01-.1.23.03.45-.35.06-.1.18-.23.07-.37l.09-.06.05.1Z"/>
      <path class="st184" d="M14.85,21.25s.02.01.03.02c0,0-.06.28-.06.3l-.04.09c-.02.05.12.16.12.26-.06-.05-.08-.11-.13-.18l-.09.23.02-.25-.19.13c.01-.14.18-.04.21-.32l.03-.24s.08-.05.11-.04Z"/>
      <path class="st182" d="M14,22.23l.15-.32s.07.08.07.15v.19c-.07-.02-.15-.03-.23-.02Z"/>
      <path class="st292" d="M20.66,18.18s-.05,0-.05.02c0,.01-.03.02,0,.04,0,0,0,.02,0,.02-.02.03-.07,0-.13,0-.04-.11-.06-.21-.1-.32l-.08-.23s-.02-.07-.04-.08c-.07-.04-.27.32-.05.55l-.27.3-.23-.2-.12.15.11.09s-.03.04-.05.05c-.05-.04-.11-.01-.16,0l-.49.05c.28.22.3.68.09.93-.03.04-.05.08-.03.13-.03,0-.05.04-.08.06-.04-.01-.11-.02-.14-.07,0-.06.02-.1.05-.15.14-.25.12-.64-.07-.84l-.32-.33s-.08-.1-.08-.17c0-.05.03-.11.09-.13.17.01.35.07.43.26.22.12.51.07.68-.13.11-.13.17-.29.16-.45v-.02c.22-.02.51-.19.55-.16s0,.11.04.15c.02.02.07,0,.09.01,0,.1.04.18.15.2-.01.06-.04.08-.08.11.02.09.06.13.13.17Z"/>
      <path class="st62" d="M21.03,15.99l.05.09.07.17h-.4c-.02.07,0,.14-.01.2-.15.01-.09.6-.04.91-.11-.02-.25,0-.3.13.14-.05.22-.04.28.07.07.12.13.23.17.37,0,.03.09,0,.11-.03.05-.09.04-.17.02-.26.13.11.06.28.05.43,0,.06.07.15,0,.22-.11.01-.24.14-.17.18-.01.02-.03.04-.05.04,0-.04-.04-.11-.1-.13s-.11.06-.15.1l-.08-.22c.06,0,.11.04.13,0,0,0,0-.01,0-.02.03,0,.04-.03.05-.06-.07-.03-.11-.08-.13-.17.04-.04.07-.05.08-.11-.11-.02-.15-.11-.15-.2-.02,0-.07,0-.09-.01-.04-.04,0-.12-.04-.15s-.33.14-.55.16c0-.06-.03-.1-.05-.17.39-.02.67-.32.75-.68.03-.11.02-.24.03-.34.11-.12.13-.29.2-.42s.24-.14.32-.08Z"/>
      <path class="st157" d="M21.26,18.72s-.04.06-.05.08c-.02,0-.02,0-.03-.01-.04-.02-.1-.03-.13-.05-.07-.05-.02-.2-.09-.27-.03-.03-.06-.03-.11-.01-.07-.03.07-.16.17-.18.05,0,.16.03.19.07.08.11.07.24.05.36Z"/>
      <path class="st55" d="M21.18,18.79s-.11.09-.18.08c-.01-.03-.03-.08-.05-.06-.03.02-.06.03-.08.06-.06-.08-.09-.17-.09-.28.01-.02.04-.05.03-.08.02,0,.04-.03.05-.04.04-.01.08-.01.11.01.07.07.02.21.09.27.03.02.09.02.13.05Z"/>
      <path class="st109" d="M19.93,18.48s-.02.03-.03.04l-.09.11-.12-.11-.11-.09.12-.15.23.2Z"/>
      <path class="st238" d="M21.15,14.91l-.02.13h-.11c0,.07,0,.11.01.17l.14-.03c.04.12.04.24.03.37.04-.03.09-.06.13-.04-.02.22.22-.06.48.23.31-.1.58.22.65.55-.01-.01-.05.02-.07.02l-.57-.03-.05-.02-.36-.02.23-.32s.01-.02,0-.03l-.32.33s-.14.01-.19.01l-.07-.17-.05-.09.07-.31c-.22-.23-.3-.55-.23-.84.06-.03.12.09.27.07Z"/>
      <path class="st205" d="M21.12,16.41c.03.06,0,.11,0,.17-.01.14.05.25.1.37v.26s.02.04.02.06c-.03,0-.07-.04-.12-.03l-.05.17-.03.06s-.09,0-.12.04c-.06-.06-.14-.15-.22-.17-.05-.31-.11-.9.04-.91l.39-.04Z"/>
      <path class="st70" d="M21.32,15.15c0,.11-.02.22.05.33.18-.1.37-.09.51.06.04-.05.08-.04.11-.04l.2.03c.06,0,.13.08.19.04l.03-.06s.02,0,.03,0c.02.03.03.08.02.11-.02,0-.04,0-.06.02.06.04.08.07.11.11.1.12.15.27.16.43-.01.02-.02.05-.01.07,0,.01,0,.03,0,.03,0,0-.14.04-.19,0-.07-.33-.34-.65-.65-.55-.25-.28-.5,0-.48-.23-.04-.02-.09,0-.13.04.01-.14,0-.25-.03-.37l.14-.03Z"/>
      <path class="st151" d="M22.13,17.57l-.36-.02.22.34h-.02s-.32-.35-.32-.35c-.04-.04-.12-.02-.16-.03l-.22-.05c-.08-.02-.15-.01-.22-.05l.05-.17s.08.02.12.03l.47.12.41-.22s0,0,.01.01l-.34.26.32.1s.02.02.02.04Z"/>
      <path class="st285" d="M21.77,16.27s0,.04-.02.04l-.32.06.28.3s0,0-.02,0l-.35-.28c-.07-.02-.16.02-.22.02l-.39.04c0-.07,0-.13.01-.19h.4c.06-.01.15.03.19-.02l.32-.33s0,.02,0,.03l-.23.32.36.02Z"/>
      <path class="st51" d="M22.63,16.93s-.03-.03-.05-.05c0-.05-.06-.09-.1-.13.05-.1.17-.11.25-.04l-.21.03c.07.06.12.11.11.19Z"/>
      <path class="st103" d="M22.6,16.58s.04-.05.07-.07c.01.03,0,.08-.07.07Z"/>
      <path class="st282" d="M18.23,10.12l-.12.25c.06.05.12.06.18.09l.08-.24c.1.03.19.13.19.27.11-.08.21-.15.36-.14-.04.01-.11.06-.1.12.02.02.07.07.11.08.17.05.34.15.46.3.07.09.07.12.04.25s.1.35.23.36c-.02.03-.03.05-.02.07-.12.03-.25.06-.37.01l-.2-.13s-.08-.05-.12-.05c0-.04-.02-.08-.08-.07-.03,0-.05.03-.08.08-.02,0-.02-.02-.02-.02.01,0,.03-.02.02-.05-.2-.03-.34-.17-.39-.35-.02-.11.02-.21.08-.33-.32.03-.63,0-.95-.13.05.11.11.17.13.25-.12,0,.05.16-.11.29-.08-.02-.15,0-.24.06l-.25-.23c-.28-.26-.68-.27-1.02-.09-.05.03-.1.05-.16.05,0-.08.03-.17.07-.24.12-.22.31-.36.57-.39l.21-.02s.1,0,.14.02c.08.04.19.07.27.05.05-.07.2-.01.21-.08,0,0,.01-.03-.01-.04l-.11-.06c.31-.17.66-.04.99.09Z"/>
      <path class="st264" d="M15.95,10.54c-.04.07-.06.16-.07.24-.06.55.1,1.09.64,1.25l-.02.2c-.31.22-.7.11-.93-.18-.25-.32-.23-.8.14-1.03l.05-.27.07-.17s.06-.08.11-.07c.01,0,.02,0,.02.03Z"/>
      <path class="st190" d="M16.73,9.73c0,.08-.02.15-.03.22-.02,0-.04-.03-.01-.06-.09-.08-.22-.07-.32.01-.08.07-.31-.05-.49.12l-.04-.31s.07,0,.11,0h.36s.04,0,.05-.03c.13.02.25.05.38.05Z"/>
      <path class="st161" d="M15.86,9.45c-.08.1-.02.13-.04.2,0,.02,0,.04.01.06l.04.31s0,.04-.02.05h-.05s-.05.03-.08.02c-.02,0-.03-.05-.01-.06l.05-.05s-.03-.07-.06-.07c0-.06,0-.14-.02-.19.01-.02.02-.05.02-.08v-.12s-.22-.27-.22-.27c.09.04.14.11.22.17l.05-.28c.04.09.04.19.05.3l.22-.22s.02,0,.02,0l-.18.23Z"/>
      <path class="st41" d="M15.82,10.58l-.07.17c-.15-.04-.21.33-.31.37l-.12-.38.5-.16Z"/>
      <path class="st107" d="M15.32,10.74l.12.38c-.06.02-.13.03-.2.07-.03-.02-.04-.06-.05-.1l-.06-.32s.07-.02.1-.03h.09Z"/>
      <path class="st199" d="M16.82,9.74s.06,0,.08.02v.16c0,.07.01.16-.03.23-.04-.02-.1-.03-.14-.02-.02,0-.05-.02-.04-.06l.02-.12c0-.07.03-.14.03-.22l.09.02Z"/>
      <path class="st26" d="M15.7,9.89c-.12-.01-.09-.13-.15-.16.05-.01.09,0,.14-.03.02.05.03.13.02.19Z"/>
      <path class="st117" d="M15.71,9.63s0,.06-.02.08c-.04.02-.09.02-.14.03,0,0,0-.02-.01-.04.07,0,.11-.06.17-.07Z"/>
      <path class="st112" d="M21.5,17.52s-.01.02-.02.03c0,0,0,.03,0,.04-.18.19-.08.53.17.67,0,.08-.05.14-.1.17-.06,0-.13,0-.19.01-.03.01-.02.06-.02.08.01.09-.04.22-.08.19.03-.11.03-.25-.05-.36-.03-.05-.14-.08-.19-.07.07-.07,0-.16,0-.22.01-.16.08-.33-.05-.43-.02-.03-.04-.08-.06-.11.03-.03.08-.06.12-.04l.03-.06c.06.04.14.03.22.05l.22.05Z"/>
      <path class="st220" d="M21.55,18.43s.02.04-.02.06c.02.07.06.18.13.22.05.03.13.02.16.09-.01.07-.08.09-.13.09-.09.09-.24.08-.3-.04-.02-.18.07-.27-.05-.32,0-.02-.01-.07.02-.08.06-.02.13,0,.19-.01Z"/>
      <path class="st77" d="M14.4,19.72c-.01.23.14.43.36.49.1.03.19.03.28.01.01.07-.03.16,0,.24.04-.08.04-.19.13-.21l.11.05c-.1.16-.13.38-.07.58s.2.21.21.31c-.18.07-.39.05-.57,0-.23-.07-.42-.22-.55-.45-.1-.08-.2-.16-.22-.3,0-.04-.03-.08-.07-.1l.27-.23-.29-.18c.11-.13.26-.18.41-.2Z"/>
      <path class="st271" d="M22.54,13.47s0,.07-.08.12c-.07.04-.15.13-.2.2-.07.25-.33.43-.57.35-.12-.07-.18-.25-.27-.36-.03-.04-.04-.07-.04-.12.19,0,.35.07.54.09l-.46-.17.32-.27c-.15.02-.24.11-.38.16,0-.16.08-.31.05-.48l-.14.49s-.04.06-.07.07c.02-.07.02-.13-.05-.17-.14-.09-.26-.25-.23-.43,0-.04.07-.09.06-.15,0,0,.03.01.03,0l.03-.03c.14-.1.3-.14.47-.13.3-.1.65-.02.83.25.14.21.05.45.13.58Z"/>
      <path class="st201" d="M20.98,13.69l-.35.19.13.21.37-.25s.02.08.05.12c.1.16.15.38.18.57.03.01.07-.02.09,0,.03.02.02.07,0,.12h.25s.22.05.22.05c.2.1.25.35.14.54-.02.03.01.06.02.06.02.01.05.01.09,0-.04.16-.12.11-.18.21-.03,0-.07-.01-.11.04-.14-.15-.33-.16-.51-.06-.07-.11-.06-.22-.05-.33.03,0,.08-.05.12-.02l.25.15s.01-.01.02-.02l-.2-.16c.08-.02.15-.02.22-.07-.07-.02-.15,0-.24,0l.11-.23-.18.21s-.13,0-.17,0c0-.04,0-.12-.02-.14,0,0-.05.01-.04,0,0-.01,0-.03-.02-.03h-.03c-.02-.11-.08-.21-.15-.21-.03,0-.08.04-.08.07-.15-.11-.27-.26-.34-.44l-.21-.47s0-.03,0-.05l.11.05.02-.35c.19,0,.35.09.5.21Z"/>
      <path class="st217" d="M20.52,13.06s0,.04,0,.06c0,0-.02,0-.03,0l-.35.48c.08.07.17.11.21.19,0,.02,0,.03,0,.05l-.02.15s-.01-.08,0-.13c-.06-.07-.16-.13-.24-.17l-.25.36.27.2s.02.03.02.04c0,.01-.02.06-.03.06-.11-.06-.2-.13-.31-.23l-.28.4-.33.47-.1-.06-.44-.34s-.09-.05-.11-.11l.44-.21.16-.07-.12-.07s-.01-.05,0-.06l.05-.03.16-.08c.09-.05.2-.07.29-.16-.05-.03-.09-.06-.13-.11l.51-.25-.09-.09c.23-.1.46-.17.67-.29.01,0,.04,0,.05,0Z"/>
      <path class="st248" d="M19.92,12.18l-.08.1.17.15.09-.11c.17.18.33.37.44.59.03.06.01.11-.03.15-.01,0-.04,0-.05,0l-.24-.16c-.05-.07-.11-.12-.2-.07-.2-.12-.4-.25-.5-.45-.03-.09-.14-.11-.2-.18-.08-.09-.16-.17-.15-.3.09,0,.19-.01.26.02l.5.25Z"/>
      <path class="st237" d="M20.91,12.06v.12s-.09.41-.09.41l-.57-.47-.05-.06.28-.33c.16.08.27.25.44.33Z"/>
      <path class="st99" d="M21.38,13.66c-.06.01-.11.08-.16.11l-.09.06-.37.25-.13-.21.35-.19.16-.09.12-.05s.05-.03.07-.07l.14-.49c.03.18-.05.32-.05.48.15-.05.23-.14.38-.16l-.32.27.46.17c-.19-.02-.35-.08-.54-.09Z"/>
      <path class="st231" d="M21.04,12.8c.01.06-.05.11-.06.15-.04.18.08.34.23.43.07.05.07.1.05.17l-.12.05-.14-.1c-.32-.22-.29-.73,0-.96l.05.25Z"/>
      <path class="st288" d="M20.52,13.12l-.04.36-.02.35-.11-.05c-.04-.08-.14-.13-.21-.19l.35-.48s.03,0,.03,0Z"/>
      <path class="st249" d="M20.19,12.06l.05.06c-.03.08-.08.14-.13.2l-.09.11-.17-.15.08-.1c.05-.07.12-.13.17-.2l.09.08Z"/>
      <path class="st260" d="M21.29,12.34s-.14.12-.2.08l.28-.25.05-.27v.23s.14-.11.14-.11h.02s-.11.14-.11.14c.08.02.14.03.2.01v.03s-.24.01-.24.01c-.06,0-.1.08-.13.11Z"/>
      <path class="st19" d="M22.13,12.31c-.1-.02-.17.01-.2-.04-.05-.08.07-.09.11-.24.07.07.13.17.09.28Z"/>
      <path class="st118" d="M15.75,10.76l-.05.27c-.37.23-.39.71-.14,1.03-.04.05-.09.06-.14.09l-.32.15-.04.03s-.01.04,0,.06c-.05-.07-.1-.15-.16-.2l-.23-.5.06-.09c.2-.02.39-.08.44-.28.01-.05,0-.15-.02-.2h.05s.02.07.05.09c.07-.04.14-.05.2-.07.1-.03.16-.4.31-.37Z"/>
      <path class="st61" d="M14.49,9.97s-.04-.07-.06-.1c.03-.02.06-.03.11-.02-.02.04-.05.08-.05.12Z"/>
      <path class="st189" d="M19.25,11.53c.12.04.25.02.37-.01l.48.47c-.06.08-.12.14-.17.2l-.5-.25c-.08-.04-.18-.02-.26-.02,0,.13.07.21.15.3.06.07.17.09.2.18.1.2.31.33.5.45.09-.05.15,0,.2.07l.24.16c-.21.12-.44.19-.67.29l.09.09-.51.25s.07.08.13.11c-.1.09-.2.11-.29.16-.02-.12-.02-.25.02-.38.04.03.06.06.11.07l.03-.43s.02,0,.02-.02l.08.02.05-.58v-.09s-.6.24-.6.24c.03.03.06.05.05.09l-.42.16.11.1-.4.17.08.06-.32.12.2.19c-.08.06-.22.01-.3.15-.16.27.3.72.71.75l.44.34-.17.24-.21-.08c-.28-.07-.53.05-.65.31-.19.41.09.85-.26,1.17-.38.36-.95.07-1.24-.4-.22-.36-.31-.78-.32-1.21.27.05.69-.04.79-.21s.06-.25.02-.42c.18.02.38-.06.45-.26.05-.15-.03-.33-.16-.4v-.11c0-.26-.31-.37-.3-.43,0,0,.34-.24.08-.67.17.04.34.02.46-.11.18,0,.32-.11.43-.25.14-.21.15-.48.08-.71.03,0,.04.02.06.03.28.22.69.45,1.02.36.1-.03.11-.18.08-.26ZM17.64,13.05s-.05.07-.04.12c.06,0,.06-.05.08-.08.07.03.14.04.22.03.08,0,.18-.09.14-.17-.03.02-.1.05-.13,0-.18-.23-.44-.18-.32-.41-.1.01-.17.09-.2.18s.02.17.08.25c.03.04.11.05.16.08ZM17.23,15.58c-.12-.2-.42-.37-.61-.23-.08.06-.1.17-.04.25.12.18.35.24.55.18.08-.03.15-.12.1-.2Z"/>
      <path class="st147" d="M18.86,10.23c.03.08.13.11.19.06.01.04.01.05.06.06.03,0,.05.02.09-.01,0,.02,0,.04.01.06.01,0,.04,0,.04-.02l.2.12.14.13c.05.05.08.12.15.17,0,.07-.02.14.03.22.05-.04.08-.08.12-.12.11.05.19.15.29.23-.05,0-.1.02-.14.05.06.08.1.1.17.13-.2.05-.37.16-.55.15-.13,0-.26-.24-.23-.36s.03-.16-.04-.25c-.11-.14-.28-.24-.46-.3-.03,0-.08-.06-.11-.08,0-.06.06-.1.1-.12-.14,0-.25.06-.36.14,0-.14-.09-.24-.19-.27l.05-.15s.08.02.11.06c.09.1.22.09.34.1Z"/>
      <path class="st198" d="M20.32,10.88l.13.13c-.07.05-.13.05-.19.07-.15-.07-.22-.2-.26-.35,0-.03-.03-.08-.07-.08-.03,0-.08,0-.1.03-.03-.06-.11-.06-.16-.06-.13-.12-.24-.24-.28-.41.06,0,.02-.21.19-.3.1-.05.2-.05.29,0-.07.1-.05.19,0,.27.06.11.17.17.3.18l.08.13c-.08,0-.1.05-.08.1.04.12.16.04.17.1,0,.06-.11.04-.09.14.01.06.06.03.09.05Z"/>
      <path class="st272" d="M20.92,11.96s-.02.07-.02.1c-.17-.07-.28-.25-.44-.33l.09-.09.37.32Z"/>
      <path class="st102" d="M20.26,11.08s-.06.03-.1.03c-.09-.08-.17-.19-.29-.23l.13-.15c.04.15.11.28.26.35Z"/>
      <path class="st166" d="M16.21,21.87v.41s.28.28.28.28c-.11-.03-.16-.12-.28-.18l-.03.32c-.07-.11-.04-.21-.08-.32-.1.08-.15.18-.26.23l.17-.24.07-.09s-.02-.1-.02-.13c0-.1-.04-.2-.02-.3l.15.02Z"/>
      <path class="st278" d="M18.51,9.87c-.06.04-.08.13-.1.2l-.05.15-.08.24c-.06-.03-.12-.04-.18-.09l.12-.25.07-.15.07-.15c-.04-.13-.12-.26-.13-.42l.17.34.16-.29c0,.14-.06.23-.08.36l.36-.12s0,.02,0,.03c-.11.04-.22.1-.33.16Z"/>
      <path class="st228" d="M18.51,9.87c.13.13.3.18.46.17.08,0,.16-.02.24-.04-.08.12-.2.2-.33.24,0,0-.02,0-.02-.01-.12-.01-.24,0-.34-.1-.03-.03-.07-.05-.11-.06.02-.07.04-.16.1-.2Z"/>
      <path class="st197" d="M22.56,14.3c.06.05.11.14.08.22.03.01.04.04.03.06,0,0-.01.02-.03.03-.02.02-.03.05,0,.09-.04,0-.05.03-.06.06-.01.06.19.11.15.2-.05.02-.1.05-.14.08-.08.06-.09.15-.17.15l-.04-.18v-.34s.07-.03.09-.07c-.04-.04-.08-.04-.12-.03-.01-.06,0-.13-.04-.15,0,0-.03,0-.04.01.07-.06.13-.12.19-.23l.1.1Z"/>
      <path class="st247" d="M22.38,15.01l.04.18c.02.09-.07.18.02.35,0,0-.03-.01-.03,0l-.03.06c-.07.04-.13-.03-.19-.04l-.2-.03c.06-.1.14-.05.18-.21.02-.08.12-.14.11-.26,0-.02.07-.04.09-.03Z"/>
      <path class="st243" d="M22.51,15.77s-.04-.07-.11-.11c.01-.02.04-.03.06-.02.04,0,.12.02.16,0l.3-.27c-.05.12-.14.18-.22.28.11.03.2,0,.3.06l-.29.04.21.26s-.03,0-.03,0l-.25-.24s-.09,0-.12,0Z"/>
      <path class="st251" d="M17.53,9.78s0-.02,0-.03l.33.08c.12.06.21.15.39.11.02,0,.04,0,.05.03l-.07.15c-.34-.13-.69-.26-.99-.09-.1-.05-.23-.11-.34-.11v-.16s.56.04.56.04c.02,0,.04.01.04.02.02.01.05-.01.03-.04Z"/>
      <path class="st216" d="M17.57,9.53l-.04.23s0,.02,0,.03h-.04s0-.12-.03-.15l.04-.14c.02-.07,0-.16.07-.22.01.09.01.18,0,.25Z"/>
      <path class="st275" d="M17.5,9.49l-.04.14s-.03-.11-.05-.15l.1.02Z"/>
      <path class="st256" d="M16.22,9.5l-.08.14.2.04s-.02.03-.05.03h-.36s-.08-.06-.12-.05c.02-.07-.04-.1.04-.2l.17.07.19-.02Z"/>
      <path class="st34" d="M13,21.26s.06,0,.05.03-.02.04-.04.04c-.03,0-.07-.04-.01-.07Z"/>
      <path class="st81" d="M19.38,10.19s0,.03.01.02c.04.17.15.3.28.41-.03,0-.05,0-.09,0l-.14-.13-.2-.12-.04-.06c.02-.07.08-.14.07-.22.02,0,.06,0,.06.02v.06s.03.03.04.03Z"/>
      <path class="st140" d="M19.76,21.94l.03-.05s.08.08.07.15c-.05-.03-.08-.06-.1-.1Z"/>
      <path class="st171" d="M11.43,12.16l.28.25s-.05.11-.1.14l-.27-.27c-.06-.06-.1-.14-.2-.12s-.21,0-.32,0c.12-.02.22-.02.34-.06l-.21-.21s.03-.03.04-.02l.24.16v-.4s0,0,.01.01l.06.42c.01.07.09.09.12.12Z"/>
      <path class="st16" d="M11.26,11.25s-.07.01-.08-.02c.01-.03.06-.05.07-.08v.1Z"/>
      <path class="st281" d="M11.34,12.28l-.05.15c-.05.16-.18.24-.33.27-.01,0-.03,0-.04,0-.04-.03-.06-.07-.07-.12.02-.05.06-.03.08-.04.13-.09.22-.23.2-.38.1-.02.14.06.2.12Z"/>
      <path class="st295" d="M10.96,12.69s-.02.07-.04.08c-.02,0-.03-.02-.03-.04,0-.02,0-.04.03-.04.01,0,.03,0,.04,0Z"/>
      <path class="st45" d="M16.05,21.85c-.02.1.02.2.02.3-.11-.08-.24-.08-.37-.02-.15.07-.23.23-.25.4-.04.02-.1-.02-.1-.05l.04-.23c-.05-.03-.1-.03-.16-.03l-.03.25s-.07-.04-.1-.06c-.05.02-.05-.05-.07-.07.03-.04.04-.1.06-.16.15-.07.2-.25.15-.4.18-.06.4,0,.47-.09.1.08.22.13.35.15Z"/>
      <path class="st235" d="M15.35,22.49s-.04.01-.07,0l-.08-.02.03-.25c.06,0,.11,0,.16.03l-.04.23Z"/>
      <path class="st28" d="M21.22,13.77c.04.13.04.29.13.4.15.19.41.27.64.22.09-.02.14-.09.21-.08,0,.05.02.13.08.12.01,0,.03-.02.04-.01.03.02.03.09.04.15l.02.1v.34s-.08,0-.08.03c0,.12-.09.18-.11.26-.04,0-.07,0-.09,0-.01,0-.04-.04-.02-.06.1-.19.06-.44-.14-.54l-.22-.04h-.25s.03-.1,0-.12c-.02-.01-.06.01-.09,0-.03-.19-.08-.41-.18-.57-.03-.04-.05-.08-.05-.12l.09-.06Z"/>
      <path class="st185" d="M19.27,10.09c.01.07-.04.15-.07.22-.01,0-.02.01-.02.02-.03.03-.06.02-.09.01-.05-.01-.05-.02-.06-.06-.02-.05-.12-.04-.16-.04.13-.05.25-.12.33-.24.05-.07.08-.16.07-.25.13-.07-.03.2,0,.34Z"/>
      <path class="st25" d="M22.62,19.21c-.07.12-.24.24-.27.17-.04-.06-.07-.16,0-.22-.05-.03-.05-.05-.05-.08,0-.08.1-.09.07-.17.07.03.11-.02.16-.06s.09.06.09.11v.25Z"/>
      <path class="st214" d="M14.45,15.43c.11.03.23,0,.35,0l-.23.35s-.03.05-.02.06c.05.09.4-.22.49-.41.03,0,.06-.04.1-.06.76,1.4,1.69,2.34,3.34,2.39,0,.01.01.02.03.02,0,.08.08.14.06.2,0,.02-.04.03-.06.02-.29-.03-.56.09-.63.4,0,.04-.02.06-.04.08l-.37-.42-.17.18.17.17c-.17.1-.11.25-.18.3-.07.05-.27-.01-.24-.09,0,0,.24-.15.19-.46-.04-.24-.27-.43-.5-.4l-.39.04v-.27s-.06-.06-.09-.07c-.05-.01-.07.05-.09.07l-.2.18s-.16.03-.21.01l-.22-.12c-.31-.23-.58-.48-.84-.78-.05-.06-.09-.14-.16-.16,0-.02-.01-.06-.02-.07-.01-.02-.04-.03-.06-.03.03-.05.01-.09-.01-.12-.07-.1-.13,0-.3-.07-.15-.05-.25-.19-.3-.35-.05-.17,0-.39.16-.49l.25-.16.24.06Z"/>
      <path class="st42" d="M14.16,18.09l-.31.24-.14.1s-.02.11-.02.15l-.08.4c-.04-.15.04-.31,0-.47l-.35.21c.07-.15.19-.21.28-.34l-.46-.09h.55s.12-.13.12-.13l.12-.12.27-.25.16.18c-.04.05-.09.08-.13.12Z"/>
      <path class="st50" d="M17.82,18.48c.05.06.09.12.14.15h.49c-.12.1-.29.03-.44.1l.21.31-.31-.23-.02.4s-.02.04-.05.05l-.02-.44c0-.05,0-.1-.05-.13-.02-.01-.05-.04-.07-.06l-.27-.24-.17-.17.17-.18.37.42Z"/>
      <path class="st145" d="M17.15,18.16s-.03.14-.1.15c-.34.05-.61-.24-.49-.31.25-.15.57.03.58.11,0,.03-.01.02.01.05Z"/>
      <path class="st114" d="M14.42,16.55s.05,0,.06.03c0,.02.02.05.02.07,0,.06-.05.09-.11.1l-.27.06c-.02-.07-.03-.14-.02-.2.11.01.21-.04.31-.06Z"/>
      <path class="st68" d="M16.33,17.79s0,.07-.04.13c-.02-.05-.09-.08-.12-.12l-.02-.28s.04-.08.09-.07c.03,0,.1.02.09.07v.27Z"/>
      <path class="st66" d="M19.17,19.78s.04.06.03.09c-.01.05-.06.05-.1.03-.04-.05-.1-.1-.13-.16.03-.02.05-.05.08-.06.05,0,.08.06.11.1Z"/>
      <path class="st219" d="M18.5,18.01v.03c-.05.02-.09.08-.09.13,0,.07.03.12.08.17l.32.33c.19.2.21.59.07.84-.03.05-.05.1-.05.15-.16-.06-.14.02-.25.04-.24.02-.46-.04-.66-.2-.18-.14-.22-.48-.2-.74l.06-.06c.05.02.05.07.05.13l.02.44s.05-.03.05-.05l.02-.4.31.23-.21-.31c.14-.07.32,0,.44-.09h-.49c-.06-.04-.1-.11-.14-.17.03-.01.04-.04.04-.08.07-.31.34-.43.63-.4Z"/>
      <path class="st172" d="M19.57,21.94s-.02,0-.03,0l-.21-.39-.09-.18c.09,0,.15.03.22.04,0-.01.01-.02.01-.02-.04-.02-.08-.04-.12-.04.04-.03.01-.07.02-.11,0-.03.08-.05.05-.11.02,0,.04.01.03.05.12.03.15.14.17.24.02.08.16.22-.06.52Z"/>
      <path class="st218" d="M13.35,16.14c.26.01.36.66.2.75-.03.02-.1.02-.15-.01-.27-.22-.2-.74-.05-.74Z"/>
      <path class="st52" d="M14.42,16.55c-.1.02-.2.07-.31.06v-.25c.17.06.23-.03.3.07.02.03.05.07.01.12Z"/>
      <path class="st259" d="M12.16,16.98h-.19c.05-.05.11-.08.17-.1l.14-.04s.06,0,.07.02c.03.05-.08.11-.19.12Z"/>
      <path class="st149" d="M13.34,13.76c-.16.04-.37.04-.5-.1-.07-.07-.02-.16.03-.2.13-.05.27-.06.4.02.09.06.12.18.07.28Z"/>
      <path class="st188" d="M13.22,14.3c-.08.05-.18.12-.28.11-.03,0-.05,0-.05.03-.16-.14-.34-.26-.49-.41.03-.02.06,0,.08.02.01-.03.04-.06.06-.04l.04.04c.15.13.35.13.54.08l.11.17Z"/>
      <path class="st21" d="M14.23,13.23s.03,0,.05,0c0,.08,0,.15.04.24.06-.01.12,0,.17-.04,0,.02.01.05.03.06.01,0,.04,0,.05,0,0,.02-.02.08-.04.08-.11.02-.12.13-.18.17-.13.09-.3.13-.44.17l.03-.66s.05,0,.07-.02c.07.04.16.03.23,0Z"/>
      <path class="st297" d="M14.45,15.43l-.24-.06c-.12-.03-.31-.23-.25-.37.01-.03.07-.08.09-.06.07.08.16.07.25.1.17.06.21.25.16.39Z"/>
      <path class="st224" d="M15.04,15.44c-.09.19-.43.5-.49.41,0-.02,0-.04.02-.06l.23-.35c.04-.05.11-.09.13-.16,0,.06.03.14.1.16Z"/>
      <path class="st150" d="M15.06,15.13c0,.09.04.18.08.25-.04.02-.06.05-.1.06-.07-.02-.1-.1-.1-.16v-.18s.08.02.12.03Z"/>
      <path class="st204" d="M14.25,18.84c-.06,0-.08.1-.18.23-.08-.07-.19-.07-.29,0-.03-.06,0-.1.02-.14.06-.15.02-.3-.12-.35,0-.04-.02-.12.02-.15l.14-.1c.25.06.4.27.41.51Z"/>
      <path class="st176" d="M13.62,18.29h-.55s.46.09.46.09c-.09.12-.21.19-.28.34l.35-.21c.04.16-.04.32,0,.47l.08-.4c.14.05.18.2.12.35-.02.04-.06.08-.02.14.1-.07.21-.06.29,0-.11.15-.28.25-.49.19-.34.27-.9.17-1.02-.16-.01-.04-.03-.07-.07-.08.12-.11.03-.27.17-.55l.13-.26c.07-.14.19-.26.35-.25.18,0,.34.13.4.29.02,0,.08,0,.09.04Z"/>
      <path class="st128" d="M20.9,14.74s-.01.06-.02.1c-.07.3,0,.62.23.84l-.07.31c-.09-.05-.26-.04-.32.08s-.09.3-.2.42c0,.1,0,.23-.03.34-.06-.02-.15-.01-.19-.05-.03-.38-.26-.73-.65-.73-.13-.24-.41-.3-.63-.16-.03-.06-.01-.12-.02-.19,0-.07.08-.11.16-.14l-.08-.22.17-.32.62.41.07-.63s.09.05.16.09l.06-.61.16.1.03-.42.02-.15.21.47c.08.18.19.33.34.44Z"/>
      <path class="st158" d="M19.47,16.66l.76.13h.05s.13.02.19.04c-.09.36-.36.66-.75.68.02.07.05.11.05.17v.02s-.06-.01-.1,0c-.28.07-.56.09-.85.09h-.33s-.02,0-.03-.02c-.06-.24,0-.49.08-.72.06-.04.06-.14.07-.23-.08-.18-.21-.13-.22-.23l.5.06.37.44c-.06-.17-.17-.28-.26-.44h.45Z"/>
      <path class="st36" d="M16.49,12.23l-.08.69s-.02.03-.03.04c-.03.08-.02.18-.12.23,0-.04-.01-.06-.05-.07s-.05,0-.09.04v.12s-.07.06-.08.09c0-.01-.03-.04-.04-.04-.33.01-.63-.1-.93-.26-.05-.03-.06-.08-.11-.15.07-.08.11-.2.12-.31,0-.08,0-.16-.02-.24,0-.02-.02-.05,0-.06l.04-.03.32-.15c.05-.02.11-.03.14-.09.23.29.61.39.93.18Z"/>
      <path class="st290" d="M15.56,14.35c.13.05.27.25.18.34-.02.08-.09.1-.16.14-.06.04-.11.07-.18.05-.06-.02-.1-.05-.14-.12-.1-.18.07-.2.04-.35,0-.03-.06-.06-.1-.08-.21-.09-.43-.07-.66,0-.06.02-.16-.05-.15-.11,0-.28.38-.37.75-.25.16.05.27.14.3.33l.12.05Z"/>
      <path class="st124" d="M16.28,14.23c-.02.1-.04.21-.04.34.13-.09.2-.19.31-.25,0,.07-.03.15,0,.23.03,0,.05-.01.06,0-.1.1-.23.2-.38.19,0,.08,0,.14-.01.22-.14-.03-.33-.07-.42-.17-.02-.02,0-.1-.06-.1.09-.1-.05-.29-.18-.34.04-.19.16-.35.33-.42.06.19.2.28.38.31Z"/>
      <path class="st87" d="M16.28,13.46l-.12.11s-.05.07-.05.1c0,.14.36.29.63.16-.03.13.02.25.15.32.11.06.38.05.35-.02.06,0,.16,0,.19-.09.04.01.06.03.08.03-.07.19-.27.28-.45.26-.12-.01-.2-.09-.31-.11.01-.05-.09-.15-.12-.11l-.09.13c-.09.03-.18,0-.26-.02-.18-.03-.33-.11-.38-.31-.02-.08-.02-.18.02-.27l.13-.27s.04-.07.07-.09c.02-.02.04-.05.09-.05-.01.05-.03.1-.02.15,0,.03.06.05.1.06Z"/>
      <path class="st100" d="M14.59,11.85c.1.06.16.18.19.29.04,0,.09,0,.12.03.07.05.12.13.16.2.03.08.03.16.02.24-.05.03-.08.07-.15.06-.01-.18-.13-.28-.23-.4-.16-.18-.35-.31-.6-.28-.02-.06-.03-.11-.06-.15,0-.13.36-.1.56.02Z"/>
      <path class="st302" d="M19.47,16.66h-.45c.09.14.2.25.26.43l-.37-.44-.5-.06c-.06,0-.13.02-.19-.02,0-.02,0-.03,0-.04l.04-.2.69.15.49-.34s0,.01,0,.02l-.39.35.41.12s.02.02.02.04Z"/>
      <path class="st300" d="M14.57,13.5s-.04,0-.05,0c-.02,0-.03-.04-.03-.06l-.09-.34s0-.12-.05-.16l-.36-.2v-.02s.35.13.35.13l-.06-.31.16.3.15-.29s.01.01.02.02l-.14.36.22.51s-.08.04-.12.06Z"/>
      <path class="st221" d="M18.41,16.59c0,.1.14.05.22.23,0,.09,0,.19-.07.23-.15-.13-.27-.29-.37-.46.02-.03.02-.05.02-.07,0,0,.01.02,0,.04.06.04.13.02.19.02Z"/>
      <path class="st242" d="M19.17,14.98l.07.05-.17.32c-.09,0-.21-.11-.19-.15l.02-.04.17-.24.1.06Z"/>
      <path class="st283" d="M16.74,14.22c-.04.18.02.33-.13.33-.01-.01-.03,0-.06,0-.03-.08,0-.16,0-.23,0-.02,0-.05-.01-.07l.09-.13s.13.06.12.11Z"/>
      <path class="st223" d="M14.49,13.44s-.11.03-.17.04c-.03-.08-.04-.15-.04-.24-.02,0-.04,0-.05,0,.07-.03.11-.1.17-.14l.09.34Z"/>
      <path class="st279" d="M14.73,11.58l-.06.09.23.5s-.07-.02-.12-.03c-.03-.12-.09-.24-.19-.29.05-.19-.17-.16-.33-.31l.31.09-.06-.32.15.31c.11-.14.12-.31.17-.31.01,0,.02.02.02.03l-.02.04c-.04.07-.06.14-.08.19Z"/>
      <path class="st206" d="M19.78,17.71c0,.16-.05.32-.16.45-.17.21-.47.25-.68.13-.08-.19-.27-.25-.43-.26v-.03s.05,0,.06-.02c.02-.06-.06-.12-.06-.2h.33c.29,0,.57-.02.85-.08.04,0,.07-.01.1,0Z"/>
      <path class="st312" d="M20.61,18.24s0-.02,0-.04c0-.02.02-.05.05-.02-.01.03-.02.06-.05.06Z"/>
      <path class="st174" d="M20.69,17.35c.08.02.16.1.22.17.03.03.04.08.06.11.02.09.03.17-.02.26-.02.03-.1.06-.11.03-.04-.14-.1-.25-.17-.37-.06-.1-.14-.12-.28-.07.05-.13.19-.16.3-.13Z"/>
      <path class="st48" d="M21.32,15.15l-.14.03-.14.03c-.02-.06-.02-.1-.01-.16h.11s.12-.02.12-.02c.04,0,.12.02.17,0l.18-.21-.11.23c.09-.01.17-.02.24,0-.08.05-.14.04-.22.07l.2.16s-.01.01-.02.02l-.25-.15s-.09.02-.12.02Z"/>
      <path class="st17" d="M21.19,14.9s-.02.01-.03.01c-.15.02-.21-.11-.27-.07,0-.04.03-.06.02-.1,0-.03.05-.07.08-.07.08,0,.13.1.15.22h.03s.02,0,.02.01Z"/>
      <path class="st44" d="M21.25,15.04h-.12s.02-.13.02-.13c.01,0,.02,0,.03-.01,0,0,.04-.01.04,0,.03.03.03.11.02.14Z"/>
      <path class="st89" d="M17.65,10.71l.1.26c.05.07.17.12.22.2.02.04.04.1.08.15-.02,0-.03.04-.02.04.02,0,.03,0,.04.02.07.23.06.5-.08.71-.11.15-.25.26-.43.25,0,0,0-.03,0-.04,0,0,.04-.02.04-.05-.36-.06-.73-.34-.61-.69-.13.05-.17.14-.17.26-.02.01-.04.03-.03.04l-.1.05-.05-.56-.12.49-.17-.16c-.07-.07-.11-.17-.23-.2l.38.51c-.53-.16-.7-.71-.64-1.25.05,0,.11-.02.16-.05.33-.18.73-.16,1.02.09l.25.23c.08-.05.16-.08.24-.06.16-.13-.01-.28.11-.29ZM17.79,11.6c.08,0,.13-.01.17-.07.1-.14-.11-.47-.41-.49-.06,0-.12.04-.14.07-.1.11.08.45.38.49ZM17.8,12.01c.07-.12-.23-.49-.63-.42-.05,0-.07.06-.06.09,0,.03,0,.08.04.12.17.22.54.39.65.21Z"/>
      <path class="st227" d="M18.39,10.93c.05.19.19.32.39.35,0,.03-.01.05-.02.05,0,0,0,.02.02.02-.02.03-.03.07-.02.1.01.04.07.07.1.04.04-.04.05-.1.08-.14.03,0,.08.02.12.05l.2.13c.02.08.02.23-.08.26-.33.09-.75-.13-1.02-.36-.02-.02-.03-.04-.06-.03,0-.02-.02-.02-.04-.02-.01,0,0-.04.02-.04-.04-.05-.06-.11-.08-.15.04-.01.05-.08.08-.12.08-.1.22-.11.33-.13Z"/>
      <path class="st49" d="M18.39,10.93c-.11.02-.25.03-.33.13-.03.04-.04.1-.08.12-.05-.08-.17-.13-.22-.2l-.1-.26c-.03-.08-.09-.13-.13-.25.32.12.63.17.95.13-.07.12-.1.23-.08.33Z"/>
      <path class="st213" d="M17.23,10.03l.11.06s.01.03.01.04c-.01.06-.16,0-.21.08-.08.02-.19-.01-.27-.05.04-.07.02-.15.03-.23.1,0,.23.05.34.11Z"/>
      <path class="st250" d="M18.93,11.35s-.03.1-.08.14c-.03.03-.09,0-.1-.04,0-.03,0-.07.02-.1.02-.05.04-.07.08-.08.07,0,.08.03.08.07Z"/>
      <path class="st299" d="M16.79,11.88s.02.08,0,.09c-.11.07-.09.14-.09.25v.72s-.29-.02-.29-.02l.08-.69.02-.2-.38-.51c.12.04.15.14.23.2l.17.16.12-.49.05.56.1-.05Z"/>
      <path class="st64" d="M15.94,9.7s-.07,0-.11,0c0-.01-.02-.04-.01-.06.04,0,.1.01.12.05Z"/>
      <path class="st193" d="M20.33,13.98l-.03.42-.16-.1-.06.61c-.06-.04-.12-.09-.16-.09-.01,0-.02-.03-.04-.04l-.39-.27.28-.4c.11.09.2.17.31.23.01,0,.04-.04.03-.06,0,0,0-.03-.02-.04l-.27-.2.25-.36c.08.04.18.1.24.17,0,.04-.04.11,0,.13Z"/>
      <path class="st79" d="M18.46,13.91c-.05.06-.1.11-.14.19l.12.09c.05-.05.09-.13.12-.19.06,0,.11.04.16.08l.24.19-.44.21c.02.06.07.08.11.11-.41-.03-.86-.49-.71-.75.08-.13.23-.09.3-.15l.23.22Z"/>
      <path class="st133" d="M19.92,14.82l-.07.63-.62-.41-.07-.05.33-.47.39.27s.03.04.04.04Z"/>
      <path class="st93" d="M19.38,13.21l-.03.43c-.06-.01-.07-.04-.11-.07-.04.13-.04.25-.02.38l-.16.08c.03-.08-.03-.13-.09-.16-.09-.06-.16-.13-.26-.16v-.03s.44-.61.44-.61c.09.03.14.13.23.14Z"/>
      <path class="st22" d="M19.05,14.03l-.05.03s-.03.05,0,.06l.12.07-.16.07-.24-.19c-.05-.04-.1-.08-.16-.08v-.05s.15-.24.15-.24c.1.03.17.1.26.16.06.04.11.09.09.16Z"/>
      <path class="st159" d="M17.12,12.46c.26.43-.08.67-.08.67,0,.06.3.17.3.43h-.05c-.05.05-.11.08-.17.08-.14,0-.19-.17-.48-.22-.11-.02-.27-.04-.35.04-.04-.01-.09-.03-.1-.06-.01-.05,0-.09.02-.15-.05,0-.07.03-.09.05v-.12c.05-.03.07-.05.1-.04s.04.03.05.07c.1-.05.1-.15.12-.23,0-.02.02-.03.03-.04l.29.02v-.72c.14.08.27.07.41.23Z"/>
      <path class="st24" d="M18.98,12.87s.11.06.15.08l.07.04c.07.07.15.11.21.19,0,.02,0,.02-.02.02-.1-.01-.14-.12-.23-.14l-.43.61s-.06.01-.1.05l-.16.18-.23-.22-.2-.19.32-.12-.08-.06.4-.17-.11-.1.42-.16Z"/>
      <path class="st138" d="M17.57,12.35c-.11.13-.28.14-.46.11-.15-.16-.27-.15-.42-.23,0-.11-.01-.18.09-.25.02-.02.02-.08,0-.09,0-.02.01-.03.03-.04,0-.12.05-.22.17-.26-.11.35.25.63.61.69,0,.03-.03.04-.04.05,0,0,0,.03,0,.04Z"/>
      <path class="st303" d="M17.34,13.56v.11c.14.07.22.26.17.4-.02,0-.04-.02-.08-.03.03-.1-.07-.22-.18-.24-.06-.01-.19-.03-.22.04-.06.15.09.27.22.29.03.07-.24.08-.35.02-.13-.07-.18-.19-.15-.32.03-.01.09-.06.1-.09.03-.14-.09-.25-.21-.26,0-.02,0-.05,0-.05.3.05.35.23.48.22.06,0,.13-.03.17-.09h.05Z"/>
      <path class="st85" d="M17.23,15.58c.05.08-.02.17-.1.2-.2.07-.43,0-.55-.18-.06-.09-.04-.2.04-.25.2-.14.49.04.61.23Z"/>
      <path class="st116" d="M17.69,13.09v-.02s-.04-.01-.05-.02c-.05-.03-.12-.04-.16-.08-.07-.08-.11-.16-.08-.25s.1-.17.2-.18c-.11.23.15.17.32.41.03.05.09.02.13,0,.03.08-.06.16-.14.17-.09.01-.16,0-.22-.03Z"/>
      <path class="st309" d="M19.52,12.63s-.05,0-.08.04l-.26.33-.07-.04s-.1-.1-.15-.08c0-.04-.03-.06-.05-.09l.61-.24v.09Z"/>
      <path class="st12" d="M19.52,12.63l-.05.58-.08-.02c-.05-.08-.14-.12-.21-.19l.26-.33s.03-.05.08-.04Z"/>
      <path class="st57" d="M17.69,13.09s-.02.08-.08.08c-.01-.05.01-.09.04-.12,0,0,.04,0,.04.02v.02Z"/>
      <path class="st123" d="M20,10.73l-.13.15s-.06.09-.12.12c-.04-.08-.04-.15-.03-.22.05-.02.07-.07.1-.1.02-.03.08-.04.1-.03.04,0,.06.05.07.08Z"/>
      <path class="st246" d="M19.67,10.62c.05,0,.13,0,.16.06-.03.03-.05.08-.1.1-.07-.04-.1-.12-.15-.17.03,0,.06,0,.09,0Z"/>
      <path class="st126" d="M19.04,10.28c-.05.05-.16.02-.19-.06,0,.02.01.02.02.01.05,0,.15,0,.16.04Z"/>
      <path class="st203" d="M19.24,10.37s-.03.03-.04.02c-.01-.01-.02-.03-.01-.06,0-.01,0-.02.02-.02l.04.06Z"/>
      <path class="st212" d="M22.36,14.67l-.02-.1s.08,0,.12.03c-.02.04-.06.07-.1.07Z"/>
      <path class="st276" d="M16.54,14.25s.01.05.01.07c-.11.05-.18.16-.31.25,0-.12.01-.23.04-.34.08.01.17.05.26.02Z"/>
      <path class="st293" d="M16.63,13.42s0,.03,0,.05c.12.01.24.12.21.26,0,.03-.07.08-.1.09-.28.13-.62-.02-.63-.16,0-.03.03-.08.05-.1l.12-.11c.08-.08.24-.06.35-.04Z"/>
      <path class="st270" d="M17.43,14.04c-.03.08-.13.1-.19.09-.13-.02-.28-.14-.22-.29.03-.07.16-.05.22-.04.12.02.22.14.18.24Z"/>
      <path class="st23" d="M17.79,11.6c-.31-.04-.48-.37-.38-.49.03-.03.08-.08.14-.07.3.02.51.35.41.49-.04.05-.1.08-.17.07Z"/>
      <path class="st29" d="M17.8,12.01c-.11.18-.48,0-.65-.21-.03-.04-.03-.09-.04-.12,0-.03.02-.08.06-.09.4-.07.7.3.63.42Z"/>
      <path class="st199" d="M18.72,13.68v.03s-.17.24-.17.24v.05c-.02.06-.06.14-.11.19l-.12-.09c.04-.07.09-.13.14-.19l.16-.18s.05-.07.1-.05Z"/>
    </g>
  </g>
  <ellipse class="st6" cx="13" cy="13" rx="4" ry="3" transform="translate(-2.92 3.81) rotate(-15)"/>
  <ellipse class="st7" cx="20" cy="18" rx="2" ry="3" transform="translate(-1.2 34.57) rotate(-80)"/>
  <ellipse class="st8" cx="16" cy="16" rx="4.5" ry="14.5" transform="translate(-4.93 24.61) rotate(-67.35)"/>
  <ellipse class="st5" cx="16" cy="16" rx="14.5" ry="4.5" transform="translate(-4.83 7.16) rotate(-22)"/>
  <circle class="st9" cx="16" cy="16" r="10"/>
</svg>